<?xml version="1.0" standalone="no"?>
<!DOCTYPE svg PUBLIC "-//W3C//DTD SVG 20010904//EN"
 "http://www.w3.org/TR/2001/REC-SVG-20010904/DTD/svg10.dtd">
<svg version="1.0" xmlns="http://www.w3.org/2000/svg"
 width="1162.000000pt" height="1162.000000pt" viewBox="0 0 1162.000000 1162.000000"
 preserveAspectRatio="xMidYMid meet">
<metadata>
Created by potrace 1.14, written by Peter Selinger 2001-2017
</metadata>
<g transform="translate(0.000000,1162.000000) scale(0.100000,-0.100000)"
fill="#000000" stroke="none">
<path d="M1551 11613 l1556 -3 -4 -24 c-4 -17 -14 -26 -34 -30 -27 -5 -42 -26
-19 -26 16 0 12 -15 -12 -46 -18 -23 -23 -42 -23 -89 0 -58 -1 -60 -29 -65
-36 -6 -46 -29 -17 -37 25 -6 29 -44 6 -63 -8 -7 -15 -19 -15 -26 0 -8 -4 -14
-10 -14 -5 0 -10 -9 -10 -20 0 -15 -7 -20 -24 -20 -27 0 -42 -15 -26 -25 15
-9 12 -62 -5 -68 -8 -3 -23 -26 -34 -50 -11 -25 -31 -48 -45 -55 -30 -13 -32
-24 -11 -56 14 -21 13 -24 -3 -39 -16 -15 -18 -14 -29 11 -6 15 -13 35 -17 45
-9 26 -26 11 -26 -24 0 -34 -25 -40 -35 -9 -3 11 -14 20 -23 21 -9 0 -25 2
-35 4 -10 2 -21 -3 -24 -11 -10 -26 -31 -14 -37 21 -6 31 -26 51 -26 25 0 -6
-9 -6 -24 0 -18 6 -26 5 -29 -4 -3 -8 -19 -13 -39 -12 -28 1 -34 6 -38 30 l-5
29 -24 -31 c-19 -25 -27 -29 -42 -22 -11 7 -27 7 -43 0 -26 -10 -43 1 -31 20
3 5 0 7 -9 4 -12 -5 -14 1 -9 30 7 42 -11 49 -29 11 -16 -35 -58 -47 -86 -25
-12 10 -31 16 -42 13 -29 -8 -52 14 -39 38 5 10 6 19 1 19 -5 0 -15 -11 -22
-25 -19 -36 -32 -31 -24 10 7 40 -7 47 -23 12 -6 -12 -22 -37 -37 -54 -24 -28
-30 -30 -57 -23 -21 6 -37 5 -50 -3 -22 -13 -25 -33 -6 -40 6 -2 8 -8 4 -13
-4 -4 -16 -3 -26 3 -10 7 -29 9 -41 6 -15 -4 -21 -2 -16 5 3 6 -2 32 -12 58
-16 40 -20 44 -25 25 -3 -12 -3 -37 -1 -54 4 -21 -2 -46 -15 -72 -18 -36 -20
-37 -21 -15 0 14 -9 43 -20 65 l-20 39 0 -32 c0 -32 -23 -46 -33 -19 -3 6 -6
2 -6 -9 -1 -12 -12 -29 -26 -38 -23 -15 -25 -15 -25 0 0 10 -3 14 -6 11 -4 -4
-1 -20 6 -36 6 -16 9 -34 6 -40 -9 -13 -33 -4 -40 16 -8 20 12 93 25 93 7 0 9
13 4 38 -9 53 -20 58 -21 11 -1 -24 -10 -52 -23 -69 -11 -16 -21 -37 -21 -47
0 -10 -5 -25 -10 -33 -8 -12 -10 -10 -10 10 -1 24 -1 24 -15 6 -22 -29 -38
-10 -30 40 4 29 2 44 -4 44 -6 0 -11 -21 -12 -47 l-1 -48 -14 34 c-14 31 -16
32 -28 16 -10 -14 -11 -27 -3 -51 10 -33 5 -64 -11 -64 -5 0 -20 21 -33 47
-20 39 -25 43 -27 25 -2 -14 -11 -22 -25 -23 -13 -1 -16 -3 -7 -6 8 -2 23 -15
32 -28 l18 -24 -30 9 c-23 7 -30 5 -30 -6 0 -9 11 -14 31 -14 17 0 28 -4 24
-10 -3 -5 -2 -10 4 -10 5 0 13 5 16 10 3 6 15 10 26 10 10 0 19 7 19 15 0 15
26 20 54 9 21 -8 20 -24 -1 -24 -10 0 -36 -9 -58 -20 -22 -11 -30 -18 -17 -16
29 6 28 2 -9 -22 -60 -38 -116 -206 -103 -310 9 -73 -5 -89 -53 -56 -20 14
-50 24 -70 24 -24 0 -54 14 -106 50 -40 28 -81 50 -91 50 -16 0 -18 7 -14 59
2 33 1 58 -4 55 -4 -3 -8 0 -8 5 0 6 6 11 14 11 22 0 38 24 24 38 -18 18 10
45 40 37 29 -7 112 4 112 15 0 5 -65 7 -144 6 -115 -3 -148 -7 -170 -21 -25
-16 -39 -54 -14 -39 6 4 26 7 43 6 18 -1 47 3 64 8 17 5 31 7 31 5 0 -19 -48
-89 -66 -97 -13 -6 -24 -16 -24 -22 0 -17 81 -86 101 -86 11 0 29 -6 42 -12
12 -7 24 -14 26 -15 1 -1 0 -7 -4 -13 -5 -7 -17 -5 -41 9 -45 27 -48 2 -4 -31
17 -12 30 -27 30 -34 0 -6 7 -17 15 -24 8 -7 15 -28 15 -47 0 -30 2 -34 15
-23 19 16 40 3 24 -16 -9 -11 -8 -18 1 -29 10 -12 10 -19 2 -27 -9 -9 -12 -9
-12 0 0 7 -4 12 -10 12 -11 0 -39 21 -78 58 -33 31 -41 19 -13 -19 13 -17 19
-30 13 -28 -13 5 -82 89 -82 100 0 5 -7 9 -15 9 -8 0 -19 9 -25 19 -6 13 -17
17 -30 14 -11 -3 -20 0 -20 6 0 5 -7 8 -16 4 -10 -4 -22 1 -30 12 -8 10 -17
16 -20 12 -3 -3 -17 -2 -30 3 -15 6 -24 6 -24 0 0 -11 60 -83 74 -89 5 -2 27
-21 47 -42 21 -22 43 -39 48 -39 6 0 33 -20 61 -45 28 -25 59 -45 70 -45 10 0
32 -11 48 -25 17 -14 33 -25 37 -25 3 0 27 -12 53 -27 26 -15 51 -28 57 -29
31 -3 75 -18 75 -25 0 -5 7 -9 15 -9 8 0 15 5 15 10 0 6 4 10 10 10 5 0 7 -6
4 -14 -4 -11 9 -17 50 -26 30 -6 61 -10 68 -9 7 1 24 -2 38 -8 14 -6 47 -16
75 -22 27 -7 53 -17 57 -24 5 -8 12 -6 26 6 23 21 42 22 42 2 0 -8 7 -15 15
-15 8 0 15 7 15 16 0 25 17 7 24 -27 7 -38 30 -34 34 7 6 47 19 51 52 14 16
-18 30 -38 31 -44 0 -6 4 0 10 12 5 13 7 28 3 33 -3 5 -2 14 1 19 11 17 38 -6
51 -42 12 -32 12 -33 13 -5 1 32 16 35 31 7 16 -31 30 -24 30 15 0 24 5 38 16
42 19 7 49 -8 49 -25 0 -23 13 -21 19 3 6 23 26 36 26 17 0 -5 9 -19 20 -32
l20 -23 0 22 c0 28 29 40 45 18 16 -22 25 -22 25 1 0 13 6 10 25 -13 19 -24
24 -26 25 -12 0 10 -5 27 -11 39 -6 11 -8 23 -4 26 7 7 14 -3 57 -83 25 -44
28 -47 28 -22 0 19 5 27 18 27 10 0 13 3 6 8 -11 7 -18 30 -29 90 -3 15 -2 21
1 13 4 -8 20 -27 35 -42 16 -16 29 -33 29 -39 0 -6 4 -9 9 -6 11 7 2 48 -13
59 -12 9 -9 8 52 -18 23 -10 42 -22 42 -27 0 -4 5 -8 10 -8 15 0 12 26 -5 40
-8 7 -15 16 -15 21 0 16 39 9 49 -8 15 -27 26 -6 12 23 -19 43 -6 39 35 -10
21 -25 42 -46 46 -46 14 0 9 27 -10 51 -24 31 -39 70 -21 52 7 -7 17 -13 23
-13 6 0 5 5 -2 12 -17 17 -15 28 7 28 11 0 26 7 34 15 8 8 16 12 19 10 2 -2
36 -5 76 -6 63 -2 72 -4 72 -20 0 -12 7 -19 19 -19 10 0 24 -7 32 -16 12 -14
14 -14 25 1 16 22 41 13 54 -19 7 -18 14 -23 29 -19 12 3 21 1 21 -5 0 -17 60
-82 75 -82 10 0 13 -11 10 -37 -1 -21 -3 -46 -4 -55 -1 -10 -7 -18 -13 -18
-10 0 -12 -26 -11 -104 3 -105 2 -105 -28 -135 -17 -17 -37 -31 -45 -31 -8 0
-14 -4 -14 -8 0 -5 -21 -19 -47 -32 -63 -31 -91 -52 -85 -68 2 -8 -11 -12 -47
-12 -27 0 -53 -4 -56 -10 -8 -13 -86 -13 -119 0 -25 9 -48 -3 -24 -13 32 -13
-26 -5 -137 20 -66 14 -145 27 -175 29 -70 5 -128 17 -158 33 -26 14 -228 49
-285 49 -30 0 -36 -3 -27 -13 11 -13 -1 -30 -13 -19 -3 4 -32 8 -64 11 -31 2
-77 13 -101 23 -25 11 -57 20 -71 20 -15 0 -32 5 -39 12 -25 25 -123 51 -182
49 -27 -1 -32 1 -22 11 16 16 15 28 -3 28 -9 0 -18 -7 -21 -15 -4 -9 -13 -13
-24 -10 -25 8 -50 -4 -43 -21 4 -12 8 -11 19 3 8 11 17 14 21 8 5 -5 14 -10
21 -11 27 -2 32 -4 32 -15 0 -6 -9 -8 -20 -4 -11 3 -29 3 -40 0 -20 -6 -20 -7
4 -26 13 -10 29 -19 36 -19 6 0 8 -4 5 -10 -13 -20 -42 -9 -102 40 -61 50 -97
69 -55 30 27 -25 28 -32 5 -23 -15 6 -16 4 -5 -9 10 -12 10 -17 1 -20 -9 -3
-7 -12 6 -34 l17 -29 -26 30 c-14 16 -23 31 -21 34 3 2 -4 10 -15 18 -27 19
-25 36 3 28 20 -5 20 -5 4 5 -10 7 -22 21 -27 33 -8 21 -9 20 -9 -5 -1 -34 -8
-35 -33 -3 -11 14 -26 25 -33 25 -8 0 -18 8 -24 17 -15 28 -22 10 -10 -26 9
-25 15 -30 30 -26 13 4 19 2 19 -8 0 -28 31 -76 45 -70 8 3 15 0 15 -6 0 -6 6
-8 13 -6 6 3 23 -11 36 -30 13 -19 27 -33 31 -30 4 2 18 -4 30 -15 13 -11 27
-20 32 -20 14 0 9 19 -9 29 -10 5 -15 12 -12 16 7 7 109 -92 109 -106 0 -13
-22 -22 -29 -13 -3 5 -13 10 -21 12 -8 1 -28 16 -43 33 -34 37 -46 32 -20 -7
27 -42 61 -73 105 -96 48 -25 63 -14 23 18 -23 18 -27 26 -17 36 9 9 15 9 24
0 7 -7 18 -12 25 -12 21 0 15 21 -7 27 -11 3 -20 9 -20 14 0 17 25 8 49 -17
21 -21 23 -29 13 -44 -17 -28 1 -33 22 -5 18 24 46 24 67 -1 16 -19 29 -18 30
4 0 13 3 12 11 -5 6 -13 16 -23 22 -23 6 0 16 -10 21 -22 12 -26 35 -36 35
-14 0 10 6 13 15 10 8 -4 12 -11 9 -16 -4 -6 5 -8 24 -3 20 4 39 1 54 -8 13
-8 39 -14 58 -13 37 2 75 -9 100 -30 8 -7 44 -14 80 -15 36 -2 70 -7 76 -11 7
-5 25 -10 40 -12 16 -2 41 -7 57 -11 15 -4 27 -3 27 2 0 10 90 0 109 -12 5 -3
12 -1 16 5 7 11 44 7 170 -17 44 -8 82 -19 85 -23 3 -5 58 -10 123 -13 109 -4
155 -15 128 -31 -7 -4 -7 -15 -1 -31 6 -15 6 -27 0 -30 -6 -4 -10 -18 -10 -32
0 -14 -8 -32 -17 -39 -15 -11 -15 -13 -3 -14 13 0 13 -1 0 -10 -13 -9 -12 -13
8 -28 l24 -18 -31 -67 c-36 -78 -37 -87 -13 -87 16 -1 16 -2 0 -13 -11 -9 -16
-27 -16 -61 1 -29 -4 -51 -11 -56 -8 -5 -9 -10 -3 -14 11 -6 14 -69 6 -99 -3
-9 -9 -15 -14 -12 -4 3 -10 -9 -12 -26 -4 -25 -1 -33 14 -37 21 -5 24 -22 4
-22 -16 0 -56 -71 -56 -99 0 -10 7 -21 15 -25 20 -7 19 -25 -2 -33 -10 -4 -24
-13 -32 -20 -11 -12 -11 -16 2 -26 13 -10 15 -20 8 -49 -5 -21 -6 -38 -2 -38
4 0 7 -16 8 -36 1 -24 -4 -37 -15 -41 -10 -3 -23 -11 -31 -17 -11 -9 -9 -12
10 -16 20 -5 24 -12 24 -40 0 -22 -5 -35 -13 -35 -15 0 -46 -56 -34 -64 5 -3
12 -14 15 -24 5 -14 2 -20 -13 -24 -22 -6 -26 -18 -10 -28 16 -10 12 -24 -15
-47 -19 -17 -22 -24 -13 -35 6 -8 17 -12 25 -9 18 7 17 -9 -2 -24 -8 -7 -15
-18 -15 -25 0 -7 -7 -15 -15 -19 -16 -6 -11 -60 8 -84 7 -9 2 -18 -17 -33 -22
-17 -26 -27 -21 -49 3 -16 2 -31 -4 -35 -6 -3 -11 -13 -11 -22 0 -8 -9 -26
-20 -41 -13 -16 -20 -37 -18 -60 2 -26 -4 -40 -24 -57 -24 -20 -25 -24 -10
-38 13 -13 13 -19 2 -31 -7 -9 -9 -16 -6 -16 4 0 -4 -15 -18 -32 -16 -22 -23
-41 -19 -58 3 -18 -3 -32 -21 -49 -14 -14 -26 -27 -26 -31 0 -10 34 -8 48 3
17 14 27 1 13 -17 -7 -8 -19 -12 -28 -9 -12 5 -14 1 -9 -14 7 -22 -16 -38 -37
-27 -8 5 -7 2 0 -7 17 -18 16 -48 -2 -55 -13 -5 -13 -8 0 -21 21 -21 19 -30
-15 -55 -20 -15 -30 -30 -30 -49 0 -15 -6 -29 -14 -32 -8 -3 -20 -25 -27 -48
-7 -22 -19 -43 -26 -45 -44 -13 -44 -13 -33 -34 8 -16 6 -24 -10 -40 -11 -11
-24 -20 -30 -20 -5 0 -10 -7 -10 -15 0 -9 -9 -33 -20 -55 -11 -22 -20 -51 -20
-65 0 -14 -4 -25 -8 -25 -5 0 -8 -10 -8 -22 1 -18 -4 -22 -23 -20 -18 2 -22
-2 -17 -14 3 -8 6 -20 6 -25 0 -6 8 -5 20 1 28 15 25 2 -5 -26 -14 -13 -25
-28 -25 -35 0 -7 -9 -9 -24 -5 -18 4 -23 2 -22 -11 0 -10 -11 -23 -26 -30 -23
-12 -26 -18 -21 -44 5 -24 3 -28 -11 -23 -14 6 -21 -5 -17 -28 0 -4 -11 -16
-24 -26 -28 -22 -33 -37 -10 -28 8 3 15 2 15 -2 0 -4 -20 -13 -44 -21 -37 -10
-45 -18 -51 -44 -4 -18 -7 -36 -5 -42 1 -5 5 -17 7 -26 6 -22 -30 -54 -93 -83
-57 -26 -130 -87 -139 -117 -4 -10 -12 -19 -19 -19 -8 0 -19 -7 -26 -15 -7 -9
-19 -14 -26 -11 -7 3 -14 0 -16 -5 -2 -6 -16 -12 -32 -13 -16 -2 -33 -11 -38
-20 -5 -9 -13 -14 -18 -11 -5 3 -20 -6 -34 -20 -14 -14 -34 -25 -44 -25 -11 0
-23 -7 -26 -16 -5 -13 -9 -14 -21 -4 -14 11 -19 7 -16 -12 0 -5 -6 -8 -14 -8
-9 0 -19 -10 -24 -22 l-8 -22 -14 22 c-8 12 -24 22 -36 22 -12 0 -33 4 -46 9
-14 6 -28 7 -32 3 -3 -4 -12 -7 -18 -7 -26 0 -107 -41 -107 -53 0 -7 -4 -11
-9 -7 -6 3 -51 12 -101 21 -72 13 -95 13 -104 4 -8 -9 -8 -14 2 -17 21 -8 13
-25 -8 -18 -13 4 -30 -1 -46 -14 -28 -22 -80 -22 -134 1 -53 23 -66 26 -82 26
-10 -1 -18 -6 -18 -12 0 -6 -4 -17 -9 -25 -7 -11 -13 -10 -35 4 -15 10 -37 19
-49 21 -12 1 -30 5 -39 9 -13 5 -21 0 -29 -19 -12 -26 -29 -35 -29 -16 0 6 4
10 9 10 16 0 20 28 5 34 -9 4 -18 -3 -24 -19 -6 -16 -18 -25 -32 -26 -17 -1
-19 -2 -5 -6 9 -2 15 -8 12 -13 -3 -4 -14 -6 -24 -3 -10 3 -22 0 -25 -6 -4 -6
-12 -11 -19 -11 -6 0 -2 7 9 15 18 14 18 14 -6 16 -17 1 -20 3 -8 6 20 5 23
18 8 28 -5 3 -21 -2 -35 -12 l-24 -18 -1 -822 c0 -542 3 -823 10 -823 6 0 10
-5 10 -11 0 -5 -4 -7 -10 -4 -7 4 -10 -322 -10 -969 l0 -976 53 0 c63 0 136
18 118 30 -14 8 51 16 199 25 124 8 143 12 136 30 -4 11 3 15 30 15 21 0 33
-4 29 -10 -7 -11 42 -12 90 -1 28 6 29 7 10 18 -14 8 -26 8 -38 2 -11 -7 -17
-7 -17 0 0 19 58 23 88 6 27 -16 31 -16 61 0 23 11 44 15 71 10 22 -4 47 -2
57 4 17 10 17 10 -3 11 -100 1 111 58 244 65 45 3 95 11 111 19 27 15 146 42
307 71 100 19 233 63 189 64 -26 0 -80 -11 -165 -35 -17 -4 -22 -3 -15 3 11
12 116 45 220 69 39 9 84 22 100 29 17 8 39 16 49 20 10 3 16 9 12 12 -8 8 88
39 169 55 27 5 52 13 55 17 3 4 31 20 63 36 33 16 61 34 64 42 3 7 9 13 14 13
6 0 19 9 31 20 12 11 34 20 50 20 20 0 26 4 22 15 -7 17 32 35 77 35 17 0 44
8 62 17 32 17 32 17 7 21 -21 3 -18 7 25 27 28 12 52 19 55 14 3 -4 17 1 30
11 23 18 23 20 5 20 -17 1 -17 3 4 11 14 5 31 7 38 5 7 -3 37 8 65 25 29 17
63 35 75 40 13 5 23 13 23 19 0 5 24 22 53 36 28 14 60 34 71 43 21 19 168
108 241 147 28 14 68 41 90 59 23 18 58 40 79 49 27 11 36 20 32 31 -3 10 1
18 12 21 9 3 25 10 34 15 10 5 24 9 31 9 8 0 22 9 32 20 10 11 13 20 7 20 -20
0 -3 24 35 50 44 29 82 70 83 87 0 6 10 15 22 19 13 4 28 14 34 22 6 8 22 16
35 17 17 1 24 8 24 23 0 14 15 31 42 49 99 67 163 114 163 122 0 4 16 15 35
24 19 9 35 21 35 27 0 5 8 10 18 10 9 1 53 37 97 81 44 44 74 79 66 77 -7 -2
-15 2 -18 9 -2 7 9 11 32 11 42 0 50 5 41 28 -4 10 -13 14 -26 11 -26 -7 -25
1 3 25 19 17 22 18 25 4 6 -27 25 -18 86 39 32 30 63 55 69 55 5 0 8 3 5 6 -3
3 14 25 38 48 24 24 44 51 44 59 0 9 9 19 20 22 11 3 20 13 20 21 0 9 11 14
30 14 17 0 30 5 30 11 0 5 -4 8 -9 4 -19 -11 -23 17 -8 48 9 18 18 40 21 49 7
22 25 23 33 3 3 -9 -2 -22 -13 -30 -18 -14 -18 -14 4 -15 16 0 22 6 22 23 0
23 46 77 66 77 5 0 17 15 27 32 18 31 19 32 33 13 10 -13 17 -16 25 -8 8 8 8
13 0 17 -20 13 -13 57 10 63 11 3 18 11 15 19 -3 8 0 11 10 7 18 -7 84 63 84
90 0 9 5 17 10 17 17 0 11 -29 -10 -50 -11 -11 -20 -27 -20 -35 0 -8 -7 -15
-15 -15 -19 0 -10 -22 16 -39 15 -9 24 -10 32 -2 8 8 5 11 -11 11 -29 0 -28
14 2 37 13 11 25 28 27 38 6 29 29 30 29 1 0 -16 -6 -26 -15 -26 -22 0 -19
-27 4 -40 28 -14 33 -13 22 8 -6 12 -5 23 6 37 15 20 15 20 8 -2 -9 -32 4 -49
20 -26 11 15 15 15 29 4 9 -7 16 -22 16 -32 0 -10 4 -20 9 -23 4 -3 6 -18 4
-33 -4 -22 -2 -25 6 -13 7 9 14 11 19 5 10 -15 49 -35 55 -29 3 3 2 14 0 25
-4 15 -12 19 -27 15 -17 -4 -25 3 -39 33 -19 42 -22 81 -7 81 6 0 15 -11 20
-25 5 -14 14 -25 20 -25 14 0 13 37 -2 42 -13 5 -4 38 11 38 14 0 24 -71 12
-83 -14 -14 -14 -47 -1 -47 6 0 13 7 16 15 5 12 10 13 20 4 11 -9 14 -8 14 5
0 9 -5 16 -11 16 -5 0 -7 5 -4 10 5 8 11 7 21 -1 11 -9 14 -7 15 12 l0 24 11
-23 c9 -17 8 -26 -4 -40 -15 -17 -13 -56 2 -47 5 3 15 -4 23 -15 13 -19 16
-19 30 -6 13 13 15 12 15 -8 0 -14 -7 -22 -19 -23 -23 -2 -62 -40 -48 -48 5
-4 7 -16 4 -28 -2 -12 -2 -16 1 -9 8 16 34 15 34 -2 0 -7 -7 -19 -15 -26 -8
-7 -15 -24 -15 -39 0 -14 -5 -33 -10 -41 -8 -13 -11 -13 -19 -1 -6 9 -11 -3
-16 -39 -4 -28 -13 -64 -21 -78 -8 -15 -14 -47 -14 -70 0 -35 -4 -45 -20 -49
-11 -3 -18 -8 -16 -12 3 -4 -3 -38 -13 -76 -10 -38 -21 -62 -24 -54 -3 8 -6
-1 -6 -18 -1 -35 -9 -41 -29 -21 -9 9 -12 9 -12 1 0 -7 5 -15 10 -18 16 -10 2
-25 -23 -25 -16 0 -18 -3 -8 -9 10 -7 11 -13 2 -30 -7 -11 -16 -21 -21 -21 -6
0 -10 -10 -10 -23 0 -13 -4 -27 -9 -33 -14 -14 -67 -149 -95 -244 -15 -47 -35
-112 -45 -145 -10 -33 -25 -87 -32 -120 -7 -33 -16 -65 -21 -71 -21 -28 -65
-194 -73 -274 -2 -25 -5 -47 -6 -50 -1 -3 -3 -9 -4 -15 -2 -5 -4 -12 -5 -15
-1 -3 -3 -32 -6 -65 -2 -33 -11 -85 -19 -115 -9 -30 -18 -66 -21 -80 -3 -14
-9 -41 -14 -60 -5 -19 -14 -62 -20 -95 -7 -33 -15 -67 -17 -75 -3 -8 -6 -55
-7 -103 -1 -61 -5 -90 -14 -96 -8 -5 -15 -31 -17 -62 -2 -29 -9 -55 -14 -57
-6 -2 -11 -17 -11 -33 0 -21 4 -28 12 -23 8 5 9 2 4 -12 -9 -21 -37 -264 -39
-336 -1 -27 -5 -48 -9 -48 -12 0 -21 -70 -10 -83 7 -8 6 -20 -3 -37 -8 -14
-14 -53 -15 -87 0 -34 -5 -65 -10 -68 -6 -4 -10 -30 -10 -58 1 -29 -1 -69 -4
-90 -5 -29 -3 -37 9 -37 20 0 19 -29 0 -36 -8 -4 -15 -10 -15 -15 0 -4 6 -6
14 -3 19 7 26 -96 10 -152 -7 -23 -11 -57 -9 -76 2 -19 -3 -57 -10 -85 -8 -29
-15 -92 -16 -140 -2 -66 -6 -93 -19 -108 -21 -24 -34 -85 -19 -85 7 0 9 -17 6
-50 l-5 -50 164 0 c103 0 164 4 164 10 0 6 5 10 11 10 5 0 7 -5 4 -10 -4 -7
154 -10 467 -10 309 0 468 4 458 10 -9 6 -10 10 -3 10 6 0 15 -4 18 -10 3 -6
50 -10 106 -10 96 0 99 1 100 23 l0 22 9 -23 c8 -18 17 -22 52 -22 37 1 46 5
68 35 14 19 30 35 36 35 5 0 23 13 39 30 16 16 34 30 39 30 10 0 33 25 59 64
5 8 10 7 16 -3 7 -10 4 -19 -7 -28 -9 -7 -12 -13 -6 -13 16 0 45 35 42 50 -2
7 11 20 28 29 35 18 78 76 68 92 -4 6 2 9 13 7 11 -2 27 3 37 11 9 8 18 12 21
10 5 -5 -113 -147 -178 -214 -27 -28 -53 -63 -59 -78 -6 -16 -22 -34 -37 -40
-26 -11 -26 -11 13 -15 34 -3 44 2 77 34 22 21 39 33 39 28 0 -6 -9 -19 -20
-29 -11 -10 -20 -22 -20 -27 0 -5 80 -8 179 -7 169 1 178 2 174 20 -6 22 -14
24 -30 8 -9 -9 -11 -7 -7 8 7 26 47 46 62 31 6 -6 8 -24 5 -39 -5 -27 -3 -29
25 -29 21 0 35 7 42 20 6 11 16 20 23 20 7 0 32 18 57 40 29 26 47 35 51 28 6
-10 -29 -48 -45 -48 -10 0 -56 -43 -56 -52 0 -4 28 -8 63 -8 44 0 71 6 95 20
36 22 52 25 52 10 0 -5 -8 -10 -17 -10 -10 0 -25 -5 -33 -10 -10 -6 65 -10
217 -10 173 0 233 4 236 13 4 9 6 9 6 0 1 -18 247 -18 254 0 4 9 6 9 6 0 1
-20 110 -17 133 4 17 15 18 15 18 0 0 -15 16 -17 133 -17 l134 0 12 66 c6 36
14 97 17 136 3 40 13 87 24 108 15 29 16 40 7 50 -9 9 -9 14 -1 17 7 2 10 13
7 24 -3 10 0 26 7 34 7 9 13 44 13 82 0 41 5 72 13 80 14 14 34 98 34 143 0
16 7 35 15 44 10 9 15 34 15 68 0 30 4 58 10 64 12 12 24 129 21 204 -1 30 2
63 7 75 5 11 15 45 22 75 13 61 22 84 69 180 17 36 31 73 31 83 0 10 11 22 24
27 20 7 24 15 22 37 -2 15 1 36 6 46 5 10 10 37 12 60 2 23 10 58 19 78 18 41
37 144 37 204 0 23 4 45 9 50 5 6 12 33 15 60 8 67 13 99 16 105 2 3 4 10 4
15 1 6 10 22 19 37 24 35 57 127 57 158 0 14 7 34 15 44 8 11 15 28 15 38 0
10 6 18 13 18 7 0 17 10 22 22 6 15 27 28 56 38 40 13 45 17 35 32 -7 12 -7
21 0 28 14 14 44 2 38 -15 -4 -10 6 -13 41 -13 47 0 60 20 17 26 -12 2 -22 8
-22 13 0 6 27 7 68 4 61 -5 65 -3 22 11 -13 5 -13 7 1 15 11 6 29 4 54 -7 29
-12 40 -12 51 -3 11 9 31 9 88 -1 89 -15 121 -8 49 10 -69 18 -69 35 0 25 28
-4 76 -9 105 -10 57 -4 76 -11 66 -26 -4 -6 -11 -6 -20 2 -7 6 -22 8 -31 5
-25 -10 46 -41 122 -54 33 -5 71 -13 85 -18 23 -7 24 -6 11 9 -7 9 -19 17 -26
17 -7 0 -18 7 -25 15 -8 10 -9 15 -2 15 16 0 62 -22 62 -30 0 -6 92 -60 103
-60 3 0 7 7 10 14 4 10 1 13 -9 9 -10 -4 -12 0 -8 11 4 11 0 16 -14 16 -21 0
-49 26 -38 37 3 3 6 1 6 -5 0 -7 6 -12 14 -12 8 0 28 -11 44 -25 17 -14 34
-25 38 -25 5 0 32 -11 59 -25 53 -26 80 -32 70 -15 -3 6 -1 10 5 10 6 0 10 -7
8 -16 -2 -10 3 -19 10 -21 6 -3 12 0 12 6 0 6 7 11 15 11 23 0 6 30 -23 41
-18 7 -22 13 -15 20 13 13 45 -2 85 -38 14 -14 31 -22 37 -19 5 4 31 -6 57
-20 31 -17 49 -23 52 -15 6 17 21 13 54 -14 16 -14 34 -23 39 -19 5 3 12 -1
15 -9 3 -8 28 -24 57 -37 29 -12 65 -29 80 -37 15 -8 35 -12 43 -9 9 3 24 1
35 -4 25 -14 24 1 -1 30 -26 30 -25 31 6 20 14 -6 30 -7 36 -4 6 4 16 1 22 -7
6 -8 25 -24 42 -36 l31 -21 -1 34 c-1 18 -7 39 -14 46 -7 7 -12 17 -12 23 0 7
-9 20 -20 30 -11 10 -20 24 -20 32 0 7 -7 16 -16 20 -8 3 -13 12 -9 21 3 10
-13 32 -47 64 -50 46 -53 48 -60 27 l-8 -21 -34 26 c-19 14 -39 26 -44 26 -6
0 -24 14 -42 30 -18 17 -35 30 -38 30 -3 0 -14 8 -24 17 -17 15 -18 15 -13 0
6 -14 3 -15 -22 -8 -15 5 -41 14 -58 21 -29 12 -50 16 -107 19 -15 0 -33 8
-42 16 -8 8 -19 15 -24 15 -5 0 -22 7 -38 14 -15 8 -31 13 -36 10 -9 -6 26
-37 55 -47 17 -6 24 -27 9 -27 -5 0 -28 10 -53 22 -24 11 -84 29 -134 39 -49
10 -99 23 -110 28 -32 14 -126 41 -146 41 -10 0 -21 -4 -24 -10 -3 -6 -26 -8
-53 -4 -80 9 -100 8 -118 -10 -12 -12 -25 -16 -43 -12 -71 17 -127 14 -191
-10 -36 -14 -72 -29 -81 -34 -9 -5 -20 -6 -23 -3 -10 10 -7 43 4 43 6 0 10 7
10 15 0 9 9 33 20 55 11 22 20 53 20 70 0 16 5 30 10 30 6 0 10 12 10 26 0 29
28 134 40 149 15 20 32 91 36 155 3 36 9 74 13 85 5 11 17 65 26 120 32 199
36 217 52 241 12 18 13 27 4 38 -9 11 -8 15 5 20 10 4 14 12 10 22 -4 10 1 22
10 29 10 7 18 30 20 61 4 58 19 114 45 169 31 67 81 207 94 266 7 30 17 64 22
75 6 10 13 36 17 56 4 20 11 38 17 40 5 2 11 10 13 18 7 40 36 121 51 144 9
14 19 40 21 58 5 45 29 111 43 116 6 2 11 12 11 21 0 10 9 26 20 36 11 10 20
22 20 26 0 10 38 66 63 94 45 50 67 84 67 103 0 12 7 25 16 30 15 9 33 36 53
80 6 12 17 25 25 28 8 3 12 12 9 20 -3 8 0 14 5 14 6 0 20 17 32 38 12 21 35
47 51 57 19 13 28 27 27 40 -2 15 2 19 20 18 14 -2 22 3 22 12 0 8 4 15 8 15
5 0 35 26 68 58 73 69 101 92 114 92 6 0 10 3 10 8 0 4 36 27 79 52 44 24 82
52 84 62 3 10 14 18 25 18 37 0 54 11 41 26 -7 8 -9 18 -5 22 4 4 14 -2 21
-12 14 -18 16 -18 40 -2 14 9 30 14 35 11 5 -3 11 -1 15 5 3 5 19 10 35 10 15
0 30 5 32 11 2 7 40 15 83 19 44 4 91 12 105 17 14 5 32 9 40 8 8 -1 23 3 33
7 18 9 124 30 163 32 23 1 47 22 57 49 4 10 13 17 20 14 14 -5 10 -39 -6 -49
-7 -5 -3 -8 11 -8 12 0 22 5 22 11 0 5 14 15 30 20 17 6 30 15 30 21 0 5 9 7
19 3 11 -3 36 1 57 10 20 8 45 13 54 10 10 -3 43 1 75 10 32 8 68 12 81 9 16
-4 24 -2 24 6 0 9 11 11 35 7 19 -3 35 -2 35 3 0 5 12 9 28 9 15 0 48 3 74 6
l48 8 0 2743 0 2744 -5812 -2 c-3197 -2 -5113 -4 -4257 -5z m2890 -55 c-9 -20
-10 -18 -10 17 0 31 2 36 9 23 6 -10 7 -25 1 -40z m136 -55 c-3 -10 -5 -2 -5
17 0 19 2 27 5 18 2 -10 2 -26 0 -35z m263 2 c0 -33 -4 -45 -15 -45 -8 0 -15
5 -15 10 0 6 5 10 10 10 6 0 10 16 10 35 0 19 2 35 5 35 3 0 5 -20 5 -45z
m-1140 -11 c0 -14 -3 -14 -15 -4 -8 7 -15 14 -15 16 0 2 7 4 15 4 8 0 15 -7
15 -16z m1290 -54 c0 -5 -4 -10 -10 -10 -5 0 -10 5 -10 10 0 6 5 10 10 10 6 0
10 -4 10 -10z m-1210 -20 c0 -5 -4 -10 -10 -10 -5 0 -10 5 -10 10 0 6 5 10 10
10 6 0 10 -4 10 -10z m1640 -190 c0 -5 -2 -10 -4 -10 -3 0 -8 5 -11 10 -3 6
-1 10 4 10 6 0 11 -4 11 -10z m-1125 -50 c3 -5 1 -10 -4 -10 -6 0 -11 5 -11
10 0 6 2 10 4 10 3 0 8 -4 11 -10z m519 -26 c3 -8 2 -12 -4 -9 -6 3 -10 10
-10 16 0 14 7 11 14 -7z m56 -30 c0 -8 -5 -12 -10 -9 -6 4 -8 11 -5 16 9 14
15 11 15 -7z m-543 -51 c-3 -10 -5 -4 -5 12 0 17 2 24 5 18 2 -7 2 -21 0 -30z
m70 0 c-3 -10 -5 -4 -5 12 0 17 2 24 5 18 2 -7 2 -21 0 -30z m476 -6 c3 -8 1
-20 -4 -28 -6 -10 -9 -7 -9 14 0 29 5 35 13 14z m-2466 -179 c-3 -8 -6 -5 -6
6 -1 11 2 17 5 13 3 -3 4 -12 1 -19z m233 -9 c0 -5 -7 -9 -15 -9 -8 0 -15 7
-15 15 0 9 6 12 15 9 8 -4 15 -10 15 -15z m-1030 -24 c0 -8 -7 -15 -15 -15
-16 0 -20 12 -8 23 11 12 23 8 23 -8z m3697 -7 c-3 -8 -6 -5 -6 6 -1 11 2 17
5 13 3 -3 4 -12 1 -19z m-2867 2 c0 -5 -4 -10 -10 -10 -5 0 -10 5 -10 10 0 6
5 10 10 10 6 0 10 -4 10 -10z m-940 -50 c0 -5 -4 -10 -10 -10 -5 0 -10 5 -10
10 0 6 5 10 10 10 6 0 10 -4 10 -10z m-70 -11 c0 -5 5 -7 10 -4 6 3 10 1 10
-4 0 -6 -11 -11 -25 -11 -16 0 -25 6 -25 15 0 8 7 15 15 15 8 0 15 -5 15 -11z
m286 -21 c3 -4 -2 -8 -10 -8 -9 0 -16 -7 -16 -15 0 -18 -27 -20 -33 -2 -5 15
-149 14 -190 -2 -22 -9 -28 -8 -25 1 9 26 260 50 274 26z m338 -29 c38 -5 66
-16 78 -29 10 -11 24 -20 31 -20 41 0 258 -132 243 -147 -3 -4 -2 -11 4 -17
13 -17 1 -29 -52 -54 -27 -12 -48 -25 -48 -28 0 -2 17 -2 38 1 37 5 37 5 7 -6
-16 -7 -35 -16 -42 -21 -7 -5 -22 -7 -34 -3 -28 9 -99 -22 -92 -40 6 -18 -45
-44 -83 -43 l-30 1 0 62 c0 92 -45 177 -146 276 -43 42 -78 79 -78 83 0 8 106
0 204 -15z m1836 1 c0 -5 -4 -10 -10 -10 -5 0 -10 5 -10 10 0 6 5 10 10 10 6
0 10 -4 10 -10z m1000 -40 c0 -5 -4 -10 -10 -10 -5 0 -10 5 -10 10 0 6 5 10
10 10 6 0 10 -4 10 -10z m-1153 -52 c-3 -7 -5 -2 -5 12 0 14 2 19 5 13 2 -7 2
-19 0 -25z m2673 10 c0 -18 -2 -20 -9 -8 -6 8 -7 18 -5 22 9 14 14 9 14 -14z
m-1060 -19 c0 -6 -4 -7 -10 -4 -5 3 -10 11 -10 16 0 6 5 7 10 4 6 -3 10 -11
10 -16z m-3886 -176 c1 -92 0 -174 -2 -180 -7 -21 -22 -15 -22 8 0 11 -7 43
-16 70 -22 66 -16 214 10 254 10 15 20 24 23 22 3 -3 6 -81 7 -174z m261 92
c22 -84 20 -232 -2 -258 -10 -11 -12 -17 -5 -13 8 5 12 -1 12 -18 0 -24 -2
-25 -20 -14 -18 12 -20 24 -20 128 -1 63 -7 145 -14 182 -9 48 -10 69 -2 72
19 7 35 -17 51 -79z m2635 29 c0 -8 -5 -12 -10 -9 -6 4 -8 11 -5 16 9 14 15
11 15 -7z m1276 -31 c-10 -10 -19 5 -10 18 6 11 8 11 12 0 2 -7 1 -15 -2 -18z
m-1296 -144 c0 -5 -4 -9 -10 -9 -5 0 -10 7 -10 16 0 8 5 12 10 9 6 -3 10 -10
10 -16z m470 5 c0 -8 -4 -12 -10 -9 -5 3 -10 10 -10 16 0 5 5 9 10 9 6 0 10
-7 10 -16z m-1290 -14 c0 -5 -2 -10 -4 -10 -3 0 -8 5 -11 10 -3 6 -1 10 4 10
6 0 11 -4 11 -10z m-1340 -85 c-7 -9 -15 -13 -17 -11 -7 7 7 26 19 26 6 0 6
-6 -2 -15z m2870 -65 c0 -5 -4 -10 -10 -10 -5 0 -10 5 -10 10 0 6 5 10 10 10
6 0 10 -4 10 -10z m1520 -20 c0 -5 -2 -10 -4 -10 -3 0 -8 5 -11 10 -3 6 -1 10
4 10 6 0 11 -4 11 -10z m-1570 -41 c0 -5 -4 -9 -10 -9 -5 0 -10 7 -10 16 0 8
5 12 10 9 6 -3 10 -10 10 -16z m-3960 1 c0 -5 -4 -10 -10 -10 -5 0 -10 5 -10
10 0 6 5 10 10 10 6 0 10 -4 10 -10z m-90 -45 c19 -23 8 -25 -14 -4 -11 11
-15 19 -9 19 6 0 16 -7 23 -15z m170 -5 c6 -11 15 -18 20 -15 14 8 23 -16 11
-28 -6 -6 -11 -17 -11 -25 0 -9 6 -7 18 7 15 20 19 20 37 7 19 -14 19 -15 -8
-21 -15 -4 -27 -11 -27 -16 0 -5 -12 -6 -26 -3 -19 5 -25 4 -20 -5 15 -24 -6
-9 -44 31 -37 40 -38 43 -22 59 17 15 38 26 54 28 4 1 12 -8 18 -19z m1318 3
c-10 -2 -18 -9 -18 -14 0 -5 -7 -9 -15 -9 -8 0 -15 4 -15 9 0 12 19 20 45 19
17 0 17 -1 3 -5z m-1178 -83 c18 -11 5 -37 -26 -54 -10 -6 -22 -15 -25 -20 -4
-5 -12 -5 -19 -1 -9 6 -9 10 1 17 9 5 4 6 -13 2 -38 -9 -34 6 10 38 41 30 50
32 72 18z m1015 0 c3 -5 2 -10 -4 -10 -5 0 -13 5 -16 10 -3 6 -2 10 4 10 5 0
13 -4 16 -10z m-65 -20 c0 -5 -4 -10 -10 -10 -5 0 -10 5 -10 10 0 6 5 10 10
10 6 0 10 -4 10 -10z m2675 0 c3 -5 1 -10 -4 -10 -6 0 -11 5 -11 10 0 6 2 10
4 10 3 0 8 -4 11 -10z m-3505 -20 c11 -11 26 -17 35 -14 9 4 17 -1 21 -10 5
-13 14 -15 40 -10 18 3 39 2 46 -2 7 -5 24 -10 38 -12 30 -4 52 -22 27 -22 -9
0 -17 -7 -17 -16 0 -8 -5 -12 -10 -9 -6 4 -8 10 -5 15 10 16 -12 20 -25 5 -12
-14 -48 -12 -75 4 -5 3 -25 6 -43 7 -19 0 -37 7 -42 14 -6 9 -10 8 -17 -5 -8
-14 -15 -15 -51 -5 -23 6 -42 13 -42 16 0 3 8 19 17 35 21 36 72 40 103 9z
m727 -26 c-3 -3 -12 -4 -19 -1 -8 3 -5 6 6 6 11 1 17 -2 13 -5z m298 -32 c-8
-8 -25 10 -25 26 0 13 2 13 14 -4 8 -10 13 -21 11 -22z m4215 23 c0 -8 -7 -15
-15 -15 -26 0 -18 20 13 29 1 1 2 -6 2 -14z m-4963 -27 c-3 -7 -5 -2 -5 12 0
14 2 19 5 13 2 -7 2 -19 0 -25z m303 8 c0 -9 -30 -14 -35 -6 -4 6 3 10 14 10
12 0 21 -2 21 -4z m-180 -10 c0 -11 -19 -15 -25 -6 -3 5 1 10 9 10 9 0 16 -2
16 -4z m3880 0 c0 -3 -4 -8 -10 -11 -5 -3 -10 -1 -10 4 0 6 5 11 10 11 6 0 10
-2 10 -4z m840 -26 c0 -5 -5 -10 -11 -10 -5 0 -7 5 -4 10 3 6 8 10 11 10 2 0
4 -4 4 -10z m-1700 -25 c0 -8 -4 -15 -10 -15 -5 0 -10 7 -10 15 0 8 5 15 10
15 6 0 10 -7 10 -15z m-580 -125 c0 -5 -2 -10 -4 -10 -3 0 -8 5 -11 10 -3 6
-1 10 4 10 6 0 11 -4 11 -10z m1830 -26 c0 -8 -5 -12 -10 -9 -6 4 -8 11 -5 16
9 14 15 11 15 -7z m-1230 -54 c0 -5 -2 -10 -4 -10 -3 0 -8 5 -11 10 -3 6 -1
10 4 10 6 0 11 -4 11 -10z m683 -5 c-3 -9 -8 -14 -10 -11 -3 3 -2 9 2 15 9 16
15 13 8 -4z m241 -176 c-3 -5 -10 -7 -15 -3 -5 3 -7 10 -3 15 3 5 10 7 15 3 5
-3 7 -10 3 -15z m-4529 -99 c8 0 16 -4 19 -9 3 -4 -6 -6 -19 -3 -18 3 -25 10
-24 26 1 17 2 17 6 4 2 -10 11 -18 18 -18z m572 14 c-3 -3 -12 -4 -19 -1 -8 3
-5 6 6 6 11 1 17 -2 13 -5z m-407 -8 c0 -3 -4 -8 -10 -11 -5 -3 -10 -1 -10 4
0 6 5 11 10 11 6 0 10 -2 10 -4z m464 -5 c4 -5 -3 -7 -14 -4 -23 6 -26 13 -6
13 8 0 17 -4 20 -9z m-143 -20 c-7 -5 -10 -14 -7 -20 8 -12 -6 -15 -17 -4 -9
8 12 33 27 33 6 0 5 -4 -3 -9z m211 -3 c-9 -9 -15 -9 -24 0 -9 9 -7 12 12 12
19 0 21 -3 12 -12z m-124 -23 c-7 -7 -67 8 -63 16 3 4 19 3 36 -3 16 -6 29
-12 27 -13z m4792 4 c0 -5 -4 -9 -10 -9 -5 0 -10 7 -10 16 0 8 5 12 10 9 6 -3
10 -10 10 -16z m-4995 -19 c3 -5 2 -10 -4 -10 -5 0 -13 5 -16 10 -3 6 -2 10 4
10 5 0 13 -4 16 -10z m207 -16 c21 -8 46 -21 57 -30 16 -14 17 -19 6 -31 -8
-7 -18 -13 -24 -13 -15 0 -14 17 2 23 6 2 -7 14 -31 26 -23 12 -48 19 -53 15
-6 -4 -15 0 -20 7 -14 22 -10 32 9 24 9 -4 34 -14 54 -21z m65 0 c-3 -3 -12
-4 -19 -1 -8 3 -5 6 6 6 11 1 17 -2 13 -5z m203 -14 c0 -13 -11 -13 -30 0 -12
8 -11 10 8 10 12 0 22 -4 22 -10z m18 -30 c6 0 12 -8 12 -17 0 -13 -3 -14 -12
-5 -7 7 -20 12 -29 12 -10 0 -21 5 -25 12 -5 8 0 9 17 5 13 -4 30 -7 37 -7z
m-48 -26 c0 -2 -9 -4 -20 -4 -11 0 -20 4 -20 9 0 5 9 7 20 4 11 -3 20 -7 20
-9z m1935 6 c3 -5 1 -10 -4 -10 -6 0 -11 5 -11 10 0 6 2 10 4 10 3 0 8 -4 11
-10z m-2035 -10 c13 -9 13 -10 0 -10 -8 0 -22 5 -30 10 -13 9 -13 10 0 10 8 0
22 -5 30 -10z m312 -1 c49 -20 46 -69 -3 -50 -14 5 -36 7 -50 5 -16 -3 -35 5
-56 24 l-32 28 57 2 c31 1 69 -3 84 -9z m108 -23 c0 -9 -7 -12 -20 -9 -31 8
-34 23 -6 23 16 0 26 -6 26 -14z m-497 -17 c12 -12 15 -19 7 -15 -8 3 -23 9
-32 12 -10 4 -18 10 -18 15 0 16 20 10 43 -12z m532 -59 c3 -5 -1 -10 -9 -10
-8 0 -18 5 -21 10 -3 6 1 10 9 10 8 0 18 -4 21 -10z m-220 -44 c17 -12 16 -13
-13 -12 -32 1 -38 6 -25 19 9 10 17 9 38 -7z m233 3 c72 0 111 -12 74 -23 -11
-4 -32 -1 -48 6 -21 10 -28 10 -31 1 -3 -7 -10 -10 -16 -8 -7 2 -24 6 -39 9
-16 4 -28 11 -28 17 0 6 5 7 11 4 5 -4 40 -7 77 -6z m141 -75 c2 -2 -12 -4
-32 -4 -20 0 -39 5 -42 11 -5 7 5 8 32 3 21 -4 40 -8 42 -10z m3821 -14 c0 -5
-2 -10 -4 -10 -3 0 -8 5 -11 10 -3 6 -1 10 4 10 6 0 11 -4 11 -10z m4990 -20
c0 -5 -4 -10 -10 -10 -5 0 -10 5 -10 10 0 6 5 10 10 10 6 0 10 -4 10 -10z
m-7280 -20 c0 -5 -2 -10 -4 -10 -3 0 -8 5 -11 10 -3 6 -1 10 4 10 6 0 11 -4
11 -10z m-420 -40 c0 -5 -2 -10 -4 -10 -3 0 -8 5 -11 10 -3 6 -1 10 4 10 6 0
11 -4 11 -10z m850 -20 c0 -5 -2 -10 -4 -10 -3 0 -8 5 -11 10 -3 6 -1 10 4 10
6 0 11 -4 11 -10z m80 -60 c0 -5 -4 -10 -10 -10 -5 0 -10 5 -10 10 0 6 5 10
10 10 6 0 10 -4 10 -10z m590 -10 c0 -5 -4 -10 -10 -10 -5 0 -10 5 -10 10 0 6
5 10 10 10 6 0 10 -4 10 -10z m-1234 -117 c-11 -11 -19 6 -11 24 8 17 8 17 12
0 3 -10 2 -21 -1 -24z m7304 21 c0 -8 -5 -12 -10 -9 -6 4 -8 11 -5 16 9 14 15
11 15 -7z m-5645 -103 c3 -5 1 -12 -5 -16 -5 -3 -10 1 -10 9 0 18 6 21 15 7z
m-1678 -43 c-3 -7 -5 -2 -5 12 0 14 2 19 5 13 2 -7 2 -19 0 -25z m33 -98 c0
-5 -5 -10 -11 -10 -5 0 -7 5 -4 10 3 6 8 10 11 10 2 0 4 -4 4 -10z m935 -50
c3 -5 1 -10 -4 -10 -6 0 -11 5 -11 10 0 6 2 10 4 10 3 0 8 -4 11 -10z m635 6
c0 -3 -4 -8 -10 -11 -5 -3 -10 -1 -10 4 0 6 5 11 10 11 6 0 10 -2 10 -4z
m-2033 -38 c-3 -7 -5 -2 -5 12 0 14 2 19 5 13 2 -7 2 -19 0 -25z m1018 -18 c3
-5 2 -10 -4 -10 -5 0 -13 5 -16 10 -3 6 -2 10 4 10 5 0 13 -4 16 -10z m6370
-30 c3 -5 -1 -10 -10 -10 -9 0 -13 5 -10 10 3 6 8 10 10 10 2 0 7 -4 10 -10z
m-8208 -16 c-3 -3 -12 -4 -19 -1 -8 3 -5 6 6 6 11 1 17 -2 13 -5z m8373 -14
c0 -5 -4 -10 -10 -10 -5 0 -10 5 -10 10 0 6 5 10 10 10 6 0 10 -4 10 -10z
m-275 -20 c3 -5 1 -10 -4 -10 -6 0 -11 5 -11 10 0 6 2 10 4 10 3 0 8 -4 11
-10z m-6885 -16 c0 -8 -5 -12 -10 -9 -6 4 -8 11 -5 16 9 14 15 11 15 -7z
m6800 -18 c0 -3 -4 -8 -10 -11 -5 -3 -10 -1 -10 4 0 6 5 11 10 11 6 0 10 -2
10 -4z m-107 -51 c1 -5 -6 -11 -15 -13 -11 -2 -18 3 -18 13 0 17 30 18 33 0z
m-7978 -45 c-3 -5 -10 -10 -16 -10 -5 0 -9 5 -9 10 0 6 7 10 16 10 8 0 12 -4
9 -10z m8655 -51 c0 -5 -4 -9 -10 -9 -5 0 -10 7 -10 16 0 8 5 12 10 9 6 -3 10
-10 10 -16z m-6510 1 c0 -5 -2 -10 -4 -10 -3 0 -8 5 -11 10 -3 6 -1 10 4 10 6
0 11 -4 11 -10z m3070 6 c0 -3 -4 -8 -10 -11 -5 -3 -10 -1 -10 4 0 6 5 11 10
11 6 0 10 -2 10 -4z m-250 -10 c0 -3 -4 -8 -10 -11 -5 -3 -10 -1 -10 4 0 6 5
11 10 11 6 0 10 -2 10 -4z m-270 -22 c0 -8 -4 -12 -10 -9 -5 3 -10 10 -10 16
0 5 5 9 10 9 6 0 10 -7 10 -16z m3220 6 c0 -5 -4 -10 -10 -10 -5 0 -10 5 -10
10 0 6 5 10 10 10 6 0 10 -4 10 -10z m-163 -16 c-3 -3 -12 -4 -19 -1 -8 3 -5
6 6 6 11 1 17 -2 13 -5z m118 -34 c3 -5 1 -10 -4 -10 -6 0 -11 5 -11 10 0 6 2
10 4 10 3 0 8 -4 11 -10z m605 -101 c0 -5 -7 -9 -15 -9 -15 0 -20 12 -9 23 8
8 24 -1 24 -14z m-7620 -39 c0 -5 -7 -10 -16 -10 -8 0 -12 5 -9 10 3 6 10 10
16 10 5 0 9 -4 9 -10z m6976 -57 c-10 -10 -19 5 -10 18 6 11 8 11 12 0 2 -7 1
-15 -2 -18z m854 23 c0 -3 -4 -8 -10 -11 -5 -3 -10 -1 -10 4 0 6 5 11 10 11 6
0 10 -2 10 -4z m-680 -77 c0 -5 -7 -9 -15 -9 -15 0 -20 12 -9 23 8 8 24 -1 24
-14z m-3400 -9 c0 -5 -4 -10 -10 -10 -5 0 -10 5 -10 10 0 6 5 10 10 10 6 0 10
-4 10 -10z m-2420 -4 c0 -11 -19 -15 -25 -6 -3 5 1 10 9 10 9 0 16 -2 16 -4z
m5630 -10 c0 -3 -4 -8 -10 -11 -5 -3 -10 -1 -10 4 0 6 5 11 10 11 6 0 10 -2
10 -4z m854 -71 c3 -9 0 -15 -9 -15 -8 0 -15 7 -15 15 0 8 4 15 9 15 5 0 11
-7 15 -15z m-6759 -36 c11 -17 -1 -21 -15 -4 -8 9 -8 15 -2 15 6 0 14 -5 17
-11z m2705 -59 c0 -5 -2 -10 -4 -10 -3 0 -8 5 -11 10 -3 6 -1 10 4 10 6 0 11
-4 11 -10z m-4670 -20 c0 -5 -7 -10 -15 -10 -8 0 -15 5 -15 10 0 6 7 10 15 10
8 0 15 -4 15 -10z m830 -10 c0 -5 -4 -10 -10 -10 -5 0 -10 5 -10 10 0 6 5 10
10 10 6 0 10 -4 10 -10z m4810 -20 c0 -5 -4 -10 -10 -10 -5 0 -10 5 -10 10 0
6 5 10 10 10 6 0 10 -4 10 -10z m3380 -25 c0 -8 -7 -15 -15 -15 -8 0 -15 7
-15 15 0 8 7 15 15 15 8 0 15 -7 15 -15z m-6910 -56 c0 -5 -4 -9 -10 -9 -5 0
-10 7 -10 16 0 8 5 12 10 9 6 -3 10 -10 10 -16z m-220 -53 c0 -3 -4 -8 -10
-11 -5 -3 -10 -1 -10 4 0 6 5 11 10 11 6 0 10 -2 10 -4z m2516 -43 c-10 -10
-19 5 -10 18 6 11 8 11 12 0 2 -7 1 -15 -2 -18z m-1916 1 c0 -8 -5 -12 -10 -9
-6 4 -8 11 -5 16 9 14 15 11 15 -7z m4900 12 c0 -11 -19 -15 -25 -6 -3 5 1 10
9 10 9 0 16 -2 16 -4z m770 0 c0 -3 -4 -8 -10 -11 -5 -3 -10 -1 -10 4 0 6 5
11 10 11 6 0 10 -2 10 -4z m120 -76 c0 -5 -4 -10 -9 -10 -6 0 -13 5 -16 10 -3
6 1 10 9 10 9 0 16 -4 16 -10z m-3815 -40 c-3 -5 -10 -10 -16 -10 -5 0 -9 5
-9 10 0 6 7 10 16 10 8 0 12 -4 9 -10z m3522 -46 c-3 -3 -12 -4 -19 -1 -8 3
-5 6 6 6 11 1 17 -2 13 -5z m-3804 -46 c-2 -5 -8 -8 -14 -8 -11 0 -12 33 -2
44 8 8 23 -25 16 -36z m-2238 13 c3 -5 1 -12 -5 -16 -5 -3 -10 1 -10 9 0 18 6
21 15 7z m6665 -1 c0 -5 -2 -10 -4 -10 -3 0 -8 5 -11 10 -3 6 -1 10 4 10 6 0
11 -4 11 -10z m-4260 -26 c0 -16 -16 -19 -25 -4 -8 13 4 32 16 25 5 -4 9 -13
9 -21z m50 16 c0 -5 -4 -10 -10 -10 -5 0 -10 5 -10 10 0 6 5 10 10 10 6 0 10
-4 10 -10z m2360 -10 c0 -5 -7 -10 -16 -10 -8 0 -12 5 -9 10 3 6 10 10 16 10
5 0 9 -4 9 -10z m-4740 -50 c0 -5 -5 -10 -11 -10 -5 0 -7 5 -4 10 3 6 8 10 11
10 2 0 4 -4 4 -10z m2310 0 c0 -5 -4 -10 -10 -10 -5 0 -10 5 -10 10 0 6 5 10
10 10 6 0 10 -4 10 -10z m87 -12 c-3 -8 -6 -5 -6 6 -1 11 2 17 5 13 3 -3 4
-12 1 -19z m2383 12 c0 -5 -4 -10 -10 -10 -5 0 -10 5 -10 10 0 6 5 10 10 10 6
0 10 -4 10 -10z m1530 0 c0 -5 -4 -10 -10 -10 -5 0 -10 5 -10 10 0 6 5 10 10
10 6 0 10 -4 10 -10z m-3960 -9 c0 -6 -4 -13 -10 -16 -5 -3 -10 1 -10 9 0 9 5
16 10 16 6 0 10 -4 10 -9z m3480 -41 c0 -5 -2 -10 -4 -10 -3 0 -8 5 -11 10 -3
6 -1 10 4 10 6 0 11 -4 11 -10z m-3460 -10 c0 -5 -4 -10 -10 -10 -5 0 -10 5
-10 10 0 6 5 10 10 10 6 0 10 -4 10 -10z m-52 -28 c2 -7 -3 -12 -12 -12 -9 0
-16 7 -16 16 0 17 22 14 28 -4z m105 -52 c-6 -22 -23 -38 -23 -21 0 17 12 41
20 41 5 0 6 -9 3 -20z m-293 -10 c0 -5 -4 -10 -10 -10 -5 0 -10 5 -10 10 0 6
5 10 10 10 6 0 10 -4 10 -10z m2190 -20 c0 -5 -7 -10 -16 -10 -8 0 -12 5 -9
10 3 6 10 10 16 10 5 0 9 -4 9 -10z m-4785 -10 c-3 -5 -10 -10 -16 -10 -5 0
-9 5 -9 10 0 6 7 10 16 10 8 0 12 -4 9 -10z m7075 0 c0 -5 -2 -10 -4 -10 -3 0
-8 5 -11 10 -3 6 -1 10 4 10 6 0 11 -4 11 -10z m-4535 -20 c3 -5 1 -10 -4 -10
-6 0 -11 5 -11 10 0 6 2 10 4 10 3 0 8 -4 11 -10z m225 0 c0 -5 -4 -10 -10
-10 -5 0 -10 5 -10 10 0 6 5 10 10 10 6 0 10 -4 10 -10z m1450 -20 c0 -5 -2
-10 -4 -10 -3 0 -8 5 -11 10 -3 6 -1 10 4 10 6 0 11 -4 11 -10z m1560 -10 c0
-5 -4 -10 -10 -10 -5 0 -10 5 -10 10 0 6 5 10 10 10 6 0 10 -4 10 -10z m-3290
-24 c0 -3 -4 -8 -10 -11 -5 -3 -10 -1 -10 4 0 6 5 11 10 11 6 0 10 -2 10 -4z
m40 -98 c0 -16 -3 -19 -11 -11 -6 6 -8 16 -5 22 11 17 16 13 16 -11z m4425 -8
c3 -5 1 -10 -4 -10 -6 0 -11 5 -11 10 0 6 2 10 4 10 3 0 8 -4 11 -10z m-4455
-120 c0 -11 -4 -20 -10 -20 -5 0 -10 9 -10 20 0 11 5 20 10 20 6 0 10 -9 10
-20z m95 -10 c3 -5 1 -10 -4 -10 -6 0 -11 5 -11 10 0 6 2 10 4 10 3 0 8 -4 11
-10z m-2735 -40 c0 -5 -4 -10 -10 -10 -5 0 -10 5 -10 10 0 6 5 10 10 10 6 0
10 -4 10 -10z m2513 -35 c3 -16 0 -24 -7 -22 -14 4 -21 47 -8 47 5 0 12 -11
15 -25z m2087 15 c0 -5 -4 -10 -10 -10 -5 0 -10 5 -10 10 0 6 5 10 10 10 6 0
10 -4 10 -10z m-1880 -10 c0 -5 -2 -10 -4 -10 -3 0 -8 5 -11 10 -3 6 -1 10 4
10 6 0 11 -4 11 -10z m4890 -80 c0 -5 -7 -10 -15 -10 -8 0 -15 5 -15 10 0 6 7
10 15 10 8 0 15 -4 15 -10z m-8470 -20 c0 -5 -4 -10 -10 -10 -5 0 -10 5 -10
10 0 6 5 10 10 10 6 0 10 -4 10 -10z m3310 -20 c0 -5 -4 -10 -10 -10 -5 0 -10
5 -10 10 0 6 5 10 10 10 6 0 10 -4 10 -10z m2710 -20 c0 -5 -4 -10 -10 -10 -5
0 -10 5 -10 10 0 6 5 10 10 10 6 0 10 -4 10 -10z m311 -3 c-1 -12 -15 -9 -19
4 -3 6 1 10 8 8 6 -3 11 -8 11 -12z m-6341 -27 c0 -5 -5 -10 -11 -10 -5 0 -7
5 -4 10 3 6 8 10 11 10 2 0 4 -4 4 -10z m6480 -46 c0 -8 -5 -12 -10 -9 -6 4
-8 11 -5 16 9 14 15 11 15 -7z m-3135 -184 c-5 -8 -11 -8 -17 -2 -6 6 -7 16
-3 22 5 8 11 8 17 2 6 -6 7 -16 3 -22z m4735 10 c0 -5 -4 -10 -10 -10 -5 0
-10 5 -10 10 0 6 5 10 10 10 6 0 10 -4 10 -10z m-4955 -40 c-3 -5 -10 -10 -16
-10 -5 0 -9 5 -9 10 0 6 7 10 16 10 8 0 12 -4 9 -10z m5255 -10 c0 -5 -2 -10
-4 -10 -3 0 -8 5 -11 10 -3 6 -1 10 4 10 6 0 11 -4 11 -10z m-2115 -10 c3 -5
1 -10 -4 -10 -6 0 -11 5 -11 10 0 6 2 10 4 10 3 0 8 -4 11 -10z m-1315 -10 c0
-5 -2 -10 -4 -10 -3 0 -8 5 -11 10 -3 6 -1 10 4 10 6 0 11 -4 11 -10z m1960 0
c0 -5 -4 -10 -10 -10 -5 0 -10 5 -10 10 0 6 5 10 10 10 6 0 10 -4 10 -10z
m-3905 -10 c3 -5 1 -10 -4 -10 -6 0 -11 5 -11 10 0 6 2 10 4 10 3 0 8 -4 11
-10z m2145 -20 c0 -5 -5 -10 -11 -10 -5 0 -7 5 -4 10 3 6 8 10 11 10 2 0 4 -4
4 -10z m-2090 -14 c0 -13 -29 -31 -37 -23 -2 2 -1 12 3 21 8 20 34 21 34 2z
m5120 -2 c0 -8 -4 -12 -10 -9 -5 3 -10 10 -10 16 0 5 5 9 10 9 6 0 10 -7 10
-16z m-295 -24 c3 -5 1 -10 -4 -10 -6 0 -11 5 -11 10 0 6 2 10 4 10 3 0 8 -4
11 -10z m-55 -60 c0 -5 -5 -10 -11 -10 -5 0 -7 5 -4 10 3 6 8 10 11 10 2 0 4
-4 4 -10z m-315 -21 c12 -19 -5 -23 -22 -6 -16 16 -16 17 -1 17 9 0 20 -5 23
-11z m-4555 -65 c0 -16 -16 -19 -25 -4 -8 13 4 32 16 25 5 -4 9 -13 9 -21z
m3160 -5 c0 -5 -7 -9 -15 -9 -15 0 -20 12 -9 23 8 8 24 -1 24 -14z m-6593 -51
c-3 -8 -6 -5 -6 6 -1 11 2 17 5 13 3 -3 4 -12 1 -19z m3501 -1 c4 -17 -33 -41
-48 -32 -12 8 21 56 35 51 6 -1 11 -10 13 -19z m-118 -42 c10 -12 10 -15 -4
-15 -9 0 -16 7 -16 15 0 8 2 15 4 15 2 0 9 -7 16 -15z m1420 -9 c0 -11 -19
-15 -25 -6 -3 5 1 10 9 10 9 0 16 -2 16 -4z m-3547 -30 c-10 -13 -19 -23 -21
-21 -5 5 22 45 31 45 4 0 0 -11 -10 -24z m1982 -6 c3 -5 1 -10 -4 -10 -6 0
-11 5 -11 10 0 6 2 10 4 10 3 0 8 -4 11 -10z m130 -29 c7 -12 -12 -24 -25 -16
-11 7 -4 25 10 25 5 0 11 -4 15 -9z m-195 -32 c0 -24 -23 -21 -28 4 -2 10 3
17 12 17 10 0 16 -9 16 -21z m-4095 -39 c3 -5 -1 -10 -10 -10 -9 0 -13 5 -10
10 3 6 8 10 10 10 2 0 7 -4 10 -10z m7900 -10 c3 -5 -1 -10 -10 -10 -9 0 -13
5 -10 10 3 6 8 10 10 10 2 0 7 -4 10 -10z m-3885 -100 c0 -5 -4 -10 -10 -10
-5 0 -10 5 -10 10 0 6 5 10 10 10 6 0 10 -4 10 -10z m270 -20 c0 -5 -4 -10
-10 -10 -5 0 -10 5 -10 10 0 6 5 10 10 10 6 0 10 -4 10 -10z m-4495 -20 c3 -5
-1 -10 -10 -10 -9 0 -13 5 -10 10 3 6 8 10 10 10 2 0 7 -4 10 -10z m6135 -20
c0 -5 -5 -10 -11 -10 -5 0 -7 5 -4 10 3 6 8 10 11 10 2 0 4 -4 4 -10z m-6219
-35 c-1 -15 -24 -12 -29 3 -3 9 2 13 12 10 10 -1 17 -7 17 -13z m4479 -20 c0
-8 -4 -15 -10 -15 -5 0 -10 7 -10 15 0 8 5 15 10 15 6 0 10 -7 10 -15z m-37
-51 c-4 -11 -9 -12 -19 -4 -7 7 -10 18 -7 26 4 11 9 12 19 4 7 -7 10 -18 7
-26z m77 32 c0 -3 -4 -8 -10 -11 -5 -3 -10 -1 -10 4 0 6 5 11 10 11 6 0 10 -2
10 -4z m2235 -26 c3 -5 -1 -10 -10 -10 -9 0 -13 5 -10 10 3 6 8 10 10 10 2 0
7 -4 10 -10z m-2465 -29 c0 -5 -7 -14 -15 -21 -12 -10 -15 -10 -15 2 0 8 3 18
7 21 9 10 23 9 23 -2z m60 -17 c0 -8 -4 -12 -10 -9 -5 3 -10 10 -10 16 0 5 5
9 10 9 6 0 10 -7 10 -16z m2078 5 c-2 -6 -8 -10 -13 -10 -5 0 -11 4 -13 10 -2
6 4 11 13 11 9 0 15 -5 13 -11z m-1998 -35 c0 -8 -4 -12 -10 -9 -5 3 -10 10
-10 16 0 5 5 9 10 9 6 0 10 -7 10 -16z m-5130 -14 c0 -5 -4 -10 -10 -10 -5 0
-10 5 -10 10 0 6 5 10 10 10 6 0 10 -4 10 -10z m-263 -31 c11 -21 13 -22 13
-4 1 19 1 19 14 3 8 -11 27 -18 47 -18 41 -1 87 -24 70 -34 -7 -4 -19 -2 -27
5 -14 11 -135 16 -153 5 -6 -4 -8 54 -2 72 3 11 28 -8 38 -29z m-176 10 c11
-5 17 -14 14 -20 -4 -5 -10 -7 -15 -4 -12 8 -21 -10 -22 -45 -1 -27 -2 -28
-14 -12 -7 9 -8 18 -3 20 5 2 4 12 -2 23 -7 15 -7 24 2 35 14 17 15 17 40 3z
m366 5 c-3 -3 -12 -4 -19 -1 -8 3 -5 6 6 6 11 1 17 -2 13 -5z m-297 -41 c0
-20 -3 -24 -11 -16 -7 7 -9 19 -6 27 10 24 17 19 17 -11z m321 12 c37 -15 30
-19 -20 -9 -17 4 -31 10 -31 15 0 13 13 11 51 -6z m5036 -17 c-3 -8 -6 -5 -6
6 -1 11 2 17 5 13 3 -3 4 -12 1 -19z m-37 -14 c0 -8 -5 -12 -10 -9 -6 4 -8 11
-5 16 9 14 15 11 15 -7z m-5370 -9 c0 -8 -4 -15 -10 -15 -5 0 -10 7 -10 15 0
8 5 15 10 15 6 0 10 -7 10 -15z m7160 1 c0 -3 -4 -8 -10 -11 -5 -3 -10 -1 -10
4 0 6 5 11 10 11 6 0 10 -2 10 -4z m-7005 -16 c-3 -5 -13 -10 -21 -10 -8 0
-14 5 -14 10 0 6 9 10 21 10 11 0 17 -4 14 -10z m5155 -16 c0 -16 -16 -19 -25
-4 -8 13 4 32 16 25 5 -4 9 -13 9 -21z m79 -25 c-12 -22 -29 -16 -29 10 0 25
11 33 26 20 10 -8 11 -16 3 -30z m141 21 c0 -5 -4 -10 -10 -10 -5 0 -10 5 -10
10 0 6 5 10 10 10 6 0 10 -4 10 -10z m3360 -41 c0 -5 -4 -9 -10 -9 -5 0 -10 7
-10 16 0 8 5 12 10 9 6 -3 10 -10 10 -16z m-7175 1 c3 -5 1 -10 -4 -10 -6 0
-11 5 -11 10 0 6 2 10 4 10 3 0 8 -4 11 -10z m1345 6 c0 -3 -4 -8 -10 -11 -5
-3 -10 -1 -10 4 0 6 5 11 10 11 6 0 10 -2 10 -4z m-1120 -16 c0 -5 -4 -10 -10
-10 -5 0 -10 5 -10 10 0 6 5 10 10 10 6 0 10 -4 10 -10z m3350 2 c0 -13 -12
-22 -22 -16 -10 6 -1 24 13 24 5 0 9 -4 9 -8z m-5280 -32 c0 -5 -4 -10 -10
-10 -5 0 -10 5 -10 10 0 6 5 10 10 10 6 0 10 -4 10 -10z m5280 -20 c0 -5 -5
-10 -11 -10 -5 0 -7 5 -4 10 3 6 8 10 11 10 2 0 4 -4 4 -10z m67 -71 c-9 -34
2 -50 29 -43 17 4 24 2 24 -7 0 -10 -14 -14 -44 -15 -38 -1 -44 2 -43 20 0 12
-3 29 -7 38 -6 12 -2 18 16 21 13 2 25 5 27 6 2 0 1 -8 -2 -20z m-145 -21
c-12 -12 -35 -1 -27 12 3 5 13 6 21 3 10 -4 12 -9 6 -15z m78 6 c0 -8 -5 -12
-10 -9 -6 4 -8 11 -5 16 9 14 15 11 15 -7z m-60 -78 c-1 -21 -1 -21 -20 3 -11
12 -17 27 -14 33 9 14 34 -12 34 -36z m-188 2 c-7 -7 -12 -8 -12 -2 0 14 12
26 19 19 2 -3 -1 -11 -7 -17z m13 -48 c3 -5 1 -10 -4 -10 -6 0 -11 5 -11 10 0
6 2 10 4 10 3 0 8 -4 11 -10z m265 -10 c0 -4 -6 -13 -14 -19 -17 -14 -31 2
-22 24 5 15 36 10 36 -5z m-149 -23 c-13 -13 -26 -3 -16 12 3 6 11 8 17 5 6
-4 6 -10 -1 -17z m75 2 c3 -6 1 -16 -5 -22 -9 -9 -14 -8 -21 3 -9 15 -4 30 10
30 5 0 12 -5 16 -11z m-1426 -9 c0 -5 -4 -10 -10 -10 -5 0 -10 5 -10 10 0 6 5
10 10 10 6 0 10 -4 10 -10z m1408 -52 c-7 -19 -38 -22 -38 -4 0 10 9 16 21 16
12 0 19 -5 17 -12z m-126 -32 c3 2 11 -2 18 -11 10 -12 9 -16 -6 -22 -10 -4
-19 -2 -22 5 -2 7 -10 12 -18 12 -8 0 -14 7 -14 15 0 12 4 13 19 6 10 -6 21
-8 23 -5z m4028 -10 c0 -11 -19 -15 -25 -6 -3 5 1 10 9 10 9 0 16 -2 16 -4z
m-8880 -36 c0 -5 -5 -10 -11 -10 -5 0 -7 5 -4 10 3 6 8 10 11 10 2 0 4 -4 4
-10z m4950 -44 c0 -3 -4 -8 -10 -11 -5 -3 -10 -1 -10 4 0 6 5 11 10 11 6 0 10
-2 10 -4z m3850 -31 c0 -2 -7 -5 -15 -9 -9 -3 -15 0 -15 9 0 9 6 12 15 9 8 -4
15 -7 15 -9z m-4104 -60 c4 -8 3 -22 0 -31 -5 -13 -9 -14 -21 -4 -8 7 -15 21
-15 31 0 23 28 25 36 4z m3050 -12 c-10 -10 -19 5 -10 18 6 11 8 11 12 0 2 -7
1 -15 -2 -18z m-2806 -3 c0 -5 -2 -10 -4 -10 -3 0 -8 5 -11 10 -3 6 -1 10 4
10 6 0 11 -4 11 -10z m-322 -13 c13 -15 -1 -42 -17 -33 -13 8 -15 46 -2 46 5
0 13 -6 19 -13z m221 -34 c3 -2 6 -17 7 -33 2 -29 1 -29 -22 -13 -13 8 -24 19
-24 23 0 5 -3 16 -7 25 -5 14 -2 16 18 10 13 -4 26 -9 28 -12z m2671 13 c0 -3
-4 -8 -10 -11 -5 -3 -10 -1 -10 4 0 6 5 11 10 11 6 0 10 -2 10 -4z m57 -18
c-3 -8 -6 -5 -6 6 -1 11 2 17 5 13 3 -3 4 -12 1 -19z m-2651 -39 c3 -6 1 -16
-6 -22 -9 -9 -15 -7 -26 7 -21 30 -19 49 5 36 11 -5 23 -15 27 -21z m-144 6
c19 8 58 -51 57 -86 0 -13 -3 -18 -6 -11 -2 6 -11 12 -18 12 -8 0 -15 10 -17
23 -2 16 -11 23 -30 25 -19 2 -28 9 -28 21 0 22 12 35 20 21 4 -6 14 -8 22 -5z
m-182 1 c0 -3 -4 -8 -10 -11 -5 -3 -10 -1 -10 4 0 6 5 11 10 11 6 0 10 -2 10
-4z m90 -35 c0 -24 -3 -28 -20 -24 -24 6 -25 16 -4 37 21 22 24 20 24 -13z
m-130 -31 c0 -13 -11 -13 -30 0 -12 8 -11 10 8 10 12 0 22 -4 22 -10z m170
-30 c0 -16 -2 -30 -5 -30 -9 0 -26 41 -20 50 12 20 25 9 25 -20z m31 3 c-12
-20 -14 -14 -5 12 4 9 9 14 11 11 3 -2 0 -13 -6 -23z m3626 5 c-3 -8 -6 -5 -6
6 -1 11 2 17 5 13 3 -3 4 -12 1 -19z m-3574 -32 c18 -14 23 -46 7 -46 -5 0
-10 -7 -10 -15 0 -8 -6 -15 -13 -15 -9 0 -14 14 -14 45 0 49 3 51 30 31z
m2764 -28 c-3 -8 -6 -5 -6 6 -1 11 2 17 5 13 3 -3 4 -12 1 -19z m-1147 2 c0
-5 -4 -10 -10 -10 -5 0 -10 5 -10 10 0 6 5 10 10 10 6 0 10 -4 10 -10z m-845
-20 c3 -5 -1 -10 -10 -10 -9 0 -13 5 -10 10 3 6 8 10 10 10 2 0 7 -4 10 -10z
m-705 -40 c0 -5 -5 -10 -11 -10 -5 0 -7 5 -4 10 3 6 8 10 11 10 2 0 4 -4 4
-10z m3470 -46 c0 -8 -5 -12 -10 -9 -6 4 -8 11 -5 16 9 14 15 11 15 -7z
m-3540 -69 c0 -17 -2 -18 -25 -9 -13 5 -14 8 -3 15 19 13 28 11 28 -6z m-780
-75 c0 -5 -4 -10 -10 -10 -5 0 -10 5 -10 10 0 6 5 10 10 10 6 0 10 -4 10 -10z
m3450 -104 c0 -3 -4 -8 -10 -11 -5 -3 -10 -1 -10 4 0 6 5 11 10 11 6 0 10 -2
10 -4z m-2705 -15 c10 -17 -12 -21 -25 -6 -10 12 -10 15 3 15 9 0 18 -4 22 -9z
m2802 -43 c-3 -8 -6 -5 -6 6 -1 11 2 17 5 13 3 -3 4 -12 1 -19z m-1667 2 c0
-5 -2 -10 -4 -10 -3 0 -8 5 -11 10 -3 6 -1 10 4 10 6 0 11 -4 11 -10z m-280
-60 c0 -5 -4 -10 -10 -10 -5 0 -10 5 -10 10 0 6 5 10 10 10 6 0 10 -4 10 -10z
m-60 -84 c0 -3 -4 -8 -10 -11 -5 -3 -10 -1 -10 4 0 6 5 11 10 11 6 0 10 -2 10
-4z m705 -45 c7 -12 -12 -24 -25 -16 -11 7 -4 25 10 25 5 0 11 -4 15 -9z m902
-13 c-3 -8 -6 -5 -6 6 -1 11 2 17 5 13 3 -3 4 -12 1 -19z m110 -30 c-3 -8 -6
-5 -6 6 -1 11 2 17 5 13 3 -3 4 -12 1 -19z m-176 -11 c-13 -13 -26 -3 -16 12
3 6 11 8 17 5 6 -4 6 -10 -1 -17z m-1561 9 c0 -3 -4 -8 -10 -11 -5 -3 -10 -1
-10 4 0 6 5 11 10 11 6 0 10 -2 10 -4z m1080 -15 c0 -6 -4 -13 -10 -16 -5 -3
-10 1 -10 9 0 9 5 16 10 16 6 0 10 -4 10 -9z m-2965 -31 c-3 -5 -11 -10 -16
-10 -6 0 -7 5 -4 10 3 6 11 10 16 10 6 0 7 -4 4 -10z m-65 -19 c0 -6 -4 -13
-10 -16 -5 -3 -10 1 -10 9 0 9 5 16 10 16 6 0 10 -4 10 -9z m2630 -21 c0 -5
-2 -10 -4 -10 -3 0 -8 5 -11 10 -3 6 -1 10 4 10 6 0 11 -4 11 -10z m-2650 -24
c0 -3 -4 -8 -10 -11 -5 -3 -10 -1 -10 4 0 6 5 11 10 11 6 0 10 -2 10 -4z
m4321 -69 c-10 -9 -11 -8 -5 6 3 10 9 15 12 12 3 -3 0 -11 -7 -18z m-309 -39
c-7 -7 -12 -8 -12 -2 0 14 12 26 19 19 2 -3 -1 -11 -7 -17z m324 -11 c18 -10
18 -37 1 -37 -17 0 -40 48 -30 63 4 7 8 6 11 -3 3 -8 11 -19 18 -23z m234 -18
c0 -11 -4 -17 -10 -14 -5 3 -10 13 -10 21 0 8 5 14 10 14 6 0 10 -9 10 -21z
m-3580 -33 c0 -3 -4 -8 -10 -11 -5 -3 -10 -1 -10 4 0 6 5 11 10 11 6 0 10 -2
10 -4z m1455 -16 c-3 -5 -11 -10 -16 -10 -6 0 -7 5 -4 10 3 6 11 10 16 10 6 0
7 -4 4 -10z m535 -10 c0 -5 -4 -10 -10 -10 -5 0 -10 5 -10 10 0 6 5 10 10 10
6 0 10 -4 10 -10z m-4540 -70 c0 -5 -2 -10 -4 -10 -3 0 -8 5 -11 10 -3 6 -1
10 4 10 6 0 11 -4 11 -10z m3876 -37 c-10 -10 -19 5 -10 18 6 11 8 11 12 0 2
-7 1 -15 -2 -18z m64 3 c0 -3 -4 -8 -10 -11 -5 -3 -10 -1 -10 4 0 6 5 11 10
11 6 0 10 -2 10 -4z m790 -27 c0 -5 -4 -9 -10 -9 -5 0 -10 7 -10 16 0 8 5 12
10 9 6 -3 10 -10 10 -16z m130 -19 c0 -5 -4 -10 -10 -10 -5 0 -10 5 -10 10 0
6 5 10 10 10 6 0 10 -4 10 -10z m-1125 -10 c3 -5 1 -10 -4 -10 -6 0 -11 5 -11
10 0 6 2 10 4 10 3 0 8 -4 11 -10z m-4405 -20 c0 -5 -5 -10 -11 -10 -5 0 -7 5
-4 10 3 6 8 10 11 10 2 0 4 -4 4 -10z m1760 5 c0 -8 -61 -37 -67 -32 -3 3 8
12 24 21 29 16 43 19 43 11z m3223 -15 c-5 -19 -23 -29 -23 -12 0 7 20 32 26
32 1 0 0 -9 -3 -20z m265 -19 c3 -8 -1 -12 -9 -9 -7 2 -15 10 -17 17 -3 8 1
12 9 9 7 -2 15 -10 17 -17z m-48 -5 c0 -3 -4 -8 -10 -11 -5 -3 -10 -1 -10 4 0
6 5 11 10 11 6 0 10 -2 10 -4z m-55 -36 c-3 -5 -14 -10 -23 -10 -15 0 -15 2
-2 10 20 13 33 13 25 0z m-255 -30 c0 -5 -7 -10 -16 -10 -8 0 -12 5 -9 10 3 6
10 10 16 10 5 0 9 -4 9 -10z m175 -10 c-3 -5 -13 -10 -21 -10 -8 0 -12 5 -9
10 3 6 13 10 21 10 8 0 12 -4 9 -10z m-76 -22 c12 -19 11 -23 -3 -33 -9 -7
-16 -15 -16 -19 0 -4 -7 -15 -16 -24 -15 -14 -18 -14 -35 9 l-19 24 -6 -22
c-7 -24 -20 -28 -42 -14 -9 6 -3 14 22 32 20 13 36 27 36 32 0 4 7 7 15 7 9 0
18 7 21 15 9 21 27 19 43 -7z m-3369 -3 c-7 -9 -15 -13 -19 -10 -3 3 1 10 9
15 21 14 24 12 10 -5z m-1170 -45 c0 -5 -7 -10 -16 -10 -8 0 -12 5 -9 10 3 6
10 10 16 10 5 0 9 -4 9 -10z m1060 -15 c-7 -9 -15 -13 -18 -10 -3 2 1 11 8 20
7 9 15 13 18 10 3 -2 -1 -11 -8 -20z m3350 -50 c0 -8 -4 -15 -10 -15 -5 0 -10
7 -10 15 0 8 5 15 10 15 6 0 10 -7 10 -15z m-3455 -35 c-3 -5 -14 -10 -23 -9
-14 0 -13 2 3 9 27 11 27 11 20 0z m3886 -33 c-13 -13 -26 -3 -16 12 3 6 11 8
17 5 6 -4 6 -10 -1 -17z m-546 -7 c-3 -5 -11 -10 -16 -10 -6 0 -7 5 -4 10 3 6
11 10 16 10 6 0 7 -4 4 -10z m1745 -16 c0 -8 -4 -12 -10 -9 -5 3 -10 10 -10
16 0 5 5 9 10 9 6 0 10 -7 10 -16z m-2133 -16 c-3 -8 -6 -5 -6 6 -1 11 2 17 5
13 3 -3 4 -12 1 -19z m333 2 c-24 -15 -36 -11 -14 4 10 8 21 12 24 10 2 -3 -2
-9 -10 -14z m-85 -20 c4 -6 11 -7 17 -4 7 4 8 2 4 -4 -10 -17 -46 -15 -46 3 0
17 16 20 25 5z m935 0 c0 -5 -4 -10 -10 -10 -5 0 -10 5 -10 10 0 6 5 10 10 10
6 0 10 -4 10 -10z m2010 0 c0 -5 8 -10 18 -10 14 0 15 -2 2 -10 -9 -5 -19 -5
-27 1 -8 7 -18 7 -31 0 -16 -8 -25 -6 -44 9 l-23 19 53 1 c28 0 52 -4 52 -10z
m-1023 -22 c-3 -8 -6 -5 -6 6 -1 11 2 17 5 13 3 -3 4 -12 1 -19z m893 12 c11
-7 6 -10 -20 -10 -26 0 -31 3 -20 10 8 5 17 10 20 10 3 0 12 -5 20 -10z m-460
-40 c0 -5 -5 -10 -11 -10 -5 0 -7 5 -4 10 3 6 8 10 11 10 2 0 4 -4 4 -10z
m-2820 -15 c0 -8 -4 -15 -9 -15 -13 0 -22 16 -14 24 11 11 23 6 23 -9z m-3001
-14 c-13 -10 -35 -22 -49 -26 -21 -6 -19 -3 10 18 40 29 75 37 39 8z m6541
-13 c0 -13 -23 -5 -28 10 -2 7 2 10 12 6 9 -3 16 -11 16 -16z m-7885 -28 c3
-5 1 -10 -4 -10 -6 0 -11 5 -11 10 0 6 2 10 4 10 3 0 8 -4 11 -10z m1219 -25
c-4 -8 -11 -12 -16 -9 -6 4 -5 10 3 15 19 12 19 11 13 -6z m7191 -55 c-3 -5
-11 -10 -16 -10 -6 0 -7 5 -4 10 3 6 11 10 16 10 6 0 7 -4 4 -10z m-5265 -10
c0 -5 -2 -10 -4 -10 -3 0 -8 5 -11 10 -3 6 -1 10 4 10 6 0 11 -4 11 -10z
m1180 -10 c0 -5 -4 -10 -10 -10 -5 0 -10 5 -10 10 0 6 5 10 10 10 6 0 10 -4
10 -10z m3792 -10 c18 -11 27 -20 20 -20 -15 0 -72 28 -72 35 0 10 21 4 52
-15z m368 -12 c0 -12 -6 -9 -26 13 -19 22 -19 22 4 8 12 -8 22 -17 22 -21z
m-4080 6 c0 -2 -7 -4 -15 -4 -8 0 -15 4 -15 10 0 5 7 7 15 4 8 -4 15 -8 15
-10z m4253 -14 c3 -11 3 -20 1 -20 -2 0 -8 9 -14 20 -6 11 -7 20 -2 20 6 0 12
-9 15 -20z m-4609 -41 c-8 -13 -24 -1 -24 18 0 13 3 13 15 3 8 -7 12 -16 9
-21z m371 11 c3 -5 -1 -10 -9 -10 -9 0 -16 5 -16 10 0 6 4 10 9 10 6 0 13 -4
16 -10z m4243 -3 c6 0 12 -6 12 -13 0 -10 -7 -11 -30 -2 -36 12 -54 34 -19 22
13 -4 30 -7 37 -7z m-4273 -66 c7 -12 -12 -24 -25 -16 -11 7 -4 25 10 25 5 0
11 -4 15 -9z m-335 -22 c0 -11 -3 -11 -24 -3 -23 9 -20 23 4 17 11 -3 20 -9
20 -14z m1470 -19 c0 -5 -4 -10 -9 -10 -6 0 -13 5 -16 10 -3 6 1 10 9 10 9 0
16 -4 16 -10z m-1170 -20 c0 -5 -5 -10 -11 -10 -5 0 -7 5 -4 10 3 6 8 10 11
10 2 0 4 -4 4 -10z m147 -86 c-3 -4 -14 -3 -24 0 -15 6 -15 8 -3 16 16 10 39
-4 27 -16z m99 17 c-3 -5 -23 -9 -43 -9 -29 0 -33 2 -18 9 28 11 67 11 61 0z
m114 5 c0 -11 -19 -15 -25 -6 -3 5 1 10 9 10 9 0 16 -2 16 -4z m-290 -10 c0
-9 -30 -14 -35 -6 -4 6 3 10 14 10 12 0 21 -2 21 -4z m-3802 -26 c-49 -38
-219 -106 -204 -82 3 6 18 13 33 17 16 3 44 16 63 28 35 22 108 55 124 56 5 1
-3 -8 -16 -19z m5247 10 c3 -5 -1 -10 -10 -10 -9 0 -13 5 -10 10 3 6 8 10 10
10 2 0 7 -4 10 -10z m-1085 -10 c0 -5 -5 -10 -11 -10 -5 0 -7 5 -4 10 3 6 8
10 11 10 2 0 4 -4 4 -10z m-875 -30 c-10 -11 -20 -18 -23 -15 -3 3 3 14 13 25
10 11 20 18 23 15 3 -3 -3 -14 -13 -25z m2162 -22 c-3 -8 -6 -5 -6 6 -1 11 2
17 5 13 3 -3 4 -12 1 -19z m-2201 -115 c-10 -10 -19 5 -10 18 6 11 8 11 12 0
2 -7 1 -15 -2 -18z m-96 -1 c0 -13 -12 -22 -22 -16 -10 6 -1 24 13 24 5 0 9
-4 9 -8z m1510 -6 c0 -3 -4 -8 -10 -11 -5 -3 -10 -1 -10 4 0 6 5 11 10 11 6 0
10 -2 10 -4z m1060 -26 c0 -11 -4 -20 -10 -20 -5 0 -10 9 -10 20 0 11 5 20 10
20 6 0 10 -9 10 -20z m-1200 0 c0 -5 -4 -10 -10 -10 -5 0 -10 5 -10 10 0 6 5
10 10 10 6 0 10 -4 10 -10z m240 0 c0 -5 -2 -10 -4 -10 -3 0 -8 5 -11 10 -3 6
-1 10 4 10 6 0 11 -4 11 -10z m-1660 -20 c0 -5 -4 -10 -10 -10 -5 0 -10 5 -10
10 0 6 5 10 10 10 6 0 10 -4 10 -10z m1410 -24 c0 -3 -4 -8 -10 -11 -5 -3 -10
-1 -10 4 0 6 5 11 10 11 6 0 10 -2 10 -4z m1200 -10 c0 -2 -8 -10 -17 -17 -16
-13 -17 -12 -4 4 13 16 21 21 21 13z m-1860 -61 c11 -13 31 -65 26 -65 -10 0
-46 74 -45 93 1 20 2 21 6 2 3 -11 9 -25 13 -30z m568 17 c-21 -29 -52 -52
-71 -52 -10 0 -15 -4 -12 -10 8 -13 2 -13 -29 4 -20 10 -23 15 -12 19 9 4 18
2 21 -4 6 -9 85 45 93 63 2 5 8 5 13 2 6 -3 5 -12 -3 -22z m1037 -32 c-5 -8
-11 -8 -17 -2 -6 6 -7 16 -3 22 5 8 11 8 17 2 6 -6 7 -16 3 -22z m-1195 -30
c0 -5 -9 -10 -19 -10 -11 0 -23 -4 -26 -10 -3 -5 -13 -10 -21 -10 -8 0 -14 5
-14 10 0 6 9 10 19 10 11 0 23 5 26 10 3 6 13 10 21 10 8 0 14 -4 14 -10z
m1340 -68 c0 -13 -12 -22 -22 -16 -10 6 -1 24 13 24 5 0 9 -4 9 -8z m-864 -39
c-10 -10 -19 5 -10 18 6 11 8 11 12 0 2 -7 1 -15 -2 -18z m-829 -45 c-3 -7 -5
-2 -5 12 0 14 2 19 5 13 2 -7 2 -19 0 -25z m-1547 -42 c0 -3 -4 -8 -10 -11 -5
-3 -10 -1 -10 4 0 6 5 11 10 11 6 0 10 -2 10 -4z m1840 0 c0 -2 -8 -10 -17
-17 -16 -13 -17 -12 -4 4 13 16 21 21 21 13z m-6385 -36 c-3 -5 -21 -9 -38 -9
l-32 1 30 8 c43 11 47 11 40 0z m4515 -70 c0 -5 -2 -10 -4 -10 -3 0 -8 5 -11
10 -3 6 -1 10 4 10 6 0 11 -4 11 -10z m3020 -34 c0 -2 -7 -7 -16 -10 -8 -3
-12 -2 -9 4 6 10 25 14 25 6z m-346 -80 c-6 -16 -24 -23 -24 -8 0 10 22 33 27
28 2 -2 1 -11 -3 -20z m403 -48 c-3 -8 -6 -5 -6 6 -1 11 2 17 5 13 3 -3 4 -12
1 -19z m-2222 3 c3 -5 1 -12 -5 -16 -5 -3 -10 1 -10 9 0 18 6 21 15 7z m1753
-11 c-7 -11 -16 -20 -20 -20 -5 0 -8 9 -8 20 0 13 7 20 20 20 18 0 19 -2 8
-20z m-108 -90 c0 -5 -5 -10 -11 -10 -5 0 -7 5 -4 10 3 6 8 10 11 10 2 0 4 -4
4 -10z m980 -20 c0 -5 -7 -10 -16 -10 -8 0 -12 5 -9 10 3 6 10 10 16 10 5 0 9
-4 9 -10z m-800 -108 c0 -13 -12 -22 -22 -16 -10 6 -1 24 13 24 5 0 9 -4 9 -8z
m-2314 -49 c-10 -10 -19 5 -10 18 6 11 8 11 12 0 2 -7 1 -15 -2 -18z m2094 -9
c0 -8 -4 -12 -10 -9 -5 3 -10 10 -10 16 0 5 5 9 10 9 6 0 10 -7 10 -16z m36
-181 c-10 -10 -19 5 -10 18 6 11 8 11 12 0 2 -7 1 -15 -2 -18z m-1756 -38 c0
-8 -4 -15 -10 -15 -5 0 -10 7 -10 15 0 8 5 15 10 15 6 0 10 -7 10 -15z m-560
-55 c13 -9 12 -13 -9 -30 -13 -11 -29 -20 -36 -20 -7 0 -16 -5 -18 -10 -3 -6
-4 -5 -3 2 1 7 12 17 24 23 23 10 30 25 11 25 -5 0 -7 5 -4 10 8 13 16 12 35
0z m1546 -27 c-10 -10 -19 5 -10 18 6 11 8 11 12 0 2 -7 1 -15 -2 -18z m1030
-9 c-4 -9 -9 -15 -11 -12 -3 3 -3 13 1 22 4 9 9 15 11 12 3 -3 3 -13 -1 -22z
m-902 -16 c-11 -36 -44 -52 -44 -22 0 10 6 14 14 11 9 -4 17 2 21 14 4 10 9
19 11 19 3 0 2 -10 -2 -22z m1306 1 c0 -14 -17 -10 -23 5 -4 10 -1 13 9 9 7
-3 14 -9 14 -14z m-1440 5 c0 -3 -5 -14 -11 -25 -11 -21 -29 -17 -29 7 0 8 5
12 10 9 6 -3 10 -1 10 4 0 6 5 11 10 11 6 0 10 -3 10 -6z m1240 -3 c0 -6 -4
-13 -10 -16 -5 -3 -10 1 -10 9 0 9 5 16 10 16 6 0 10 -4 10 -9z m172 -26 c0
-5 -5 -11 -11 -13 -6 -2 -11 4 -11 13 0 9 5 15 11 13 6 -2 11 -8 11 -13z
m-436 -33 c-23 -23 -33 -6 -10 19 12 13 20 16 22 9 3 -7 -3 -19 -12 -28z
m-848 -12 c-13 -20 -28 -27 -28 -12 0 10 22 32 32 32 5 0 3 -9 -4 -20z m-1933
1 c3 -5 1 -12 -5 -16 -5 -3 -10 1 -10 9 0 18 6 21 15 7z m1815 -16 c-7 -8 -16
-15 -21 -15 -5 0 -1 9 8 20 9 11 19 17 21 15 3 -3 -1 -11 -8 -20z m1501 -16
c-22 -24 -28 -11 -10 23 7 14 14 17 21 10 7 -7 4 -18 -11 -33z m-331 16 c0 -8
-4 -15 -10 -15 -5 0 -7 7 -4 15 4 8 8 15 10 15 2 0 4 -7 4 -15z m-1120 1 c0
-3 -4 -8 -10 -11 -5 -3 -10 -1 -10 4 0 6 5 11 10 11 6 0 10 -2 10 -4z m-96
-45 c9 -14 -4 -41 -19 -41 -8 0 -17 -9 -20 -20 -5 -16 -12 -19 -27 -14 -15 5
-20 3 -16 -7 4 -10 -2 -14 -18 -14 -13 0 -24 3 -24 6 0 12 86 74 99 71 9 -2
12 2 8 12 -7 17 8 22 17 7z m-1564 -36 c0 -8 -7 -15 -15 -15 -16 0 -20 12 -8
23 11 12 23 8 23 -8z m1555 -61 c-22 -19 -54 -47 -72 -62 -29 -24 -47 -62 -23
-47 6 3 7 -1 4 -10 -4 -9 -13 -13 -24 -10 -9 3 -29 -4 -43 -16 l-27 -20 0 20
c0 22 13 49 43 90 13 19 15 26 5 32 -7 4 -9 11 -5 15 4 4 14 -1 22 -12 19 -25
19 -34 0 -34 -8 0 -15 -7 -15 -15 0 -20 9 -19 34 6 45 44 130 108 135 103 3
-3 -12 -21 -34 -40z m86 19 c-5 -10 -18 -27 -28 -38 -10 -11 -31 -38 -47 -60
-31 -43 -71 -85 -81 -85 -7 0 17 33 67 92 15 18 28 41 28 51 0 9 6 17 13 17 7
0 18 9 25 20 15 25 37 27 23 3z m1131 -5 c-7 -7 -12 -8 -12 -2 0 14 12 26 19
19 2 -3 -1 -11 -7 -17z m54 -26 c-23 -23 -31 -8 -9 17 10 13 19 17 22 10 2 -6
-4 -18 -13 -27z m-706 13 c0 -8 -7 -15 -16 -15 -14 0 -14 3 -4 15 7 8 14 15
16 15 2 0 4 -7 4 -15z m610 -28 c0 -7 -9 -20 -20 -30 -17 -14 -20 -14 -20 -2
0 8 8 15 18 16 10 0 12 3 4 6 -6 2 -10 9 -6 14 8 13 24 11 24 -4z m164 -3 c3
-8 2 -12 -4 -9 -6 3 -10 10 -10 16 0 14 7 11 14 -7z m-2787 -36 c-3 -8 -6 -5
-6 6 -1 11 2 17 5 13 3 -3 4 -12 1 -19z m1881 0 c-3 -7 -12 -14 -21 -16 -12
-2 -15 1 -11 12 7 19 38 22 32 4z m772 -2 c0 -2 -7 -9 -15 -16 -13 -11 -14
-10 -9 4 5 14 24 23 24 12z m-1065 -36 c-9 -16 -19 -30 -23 -30 -4 0 -20 -11
-36 -25 -30 -26 -46 -31 -46 -16 0 11 99 101 111 101 5 0 3 -13 -6 -30z m427
8 c-7 -7 -12 -8 -12 -2 0 14 12 26 19 19 2 -3 -1 -11 -7 -17z m719 -21 c-6
-14 -22 -33 -36 -43 -14 -9 -25 -24 -26 -33 0 -9 -3 -11 -5 -5 -3 6 12 37 33
68 37 57 53 63 34 13z m-2591 24 c0 -12 -20 -25 -27 -18 -7 7 6 27 18 27 5 0
9 -4 9 -9z m2434 2 c-5 -5 -12 -12 -16 -18 -4 -6 -8 -2 -8 8 0 9 7 17 17 17 9
0 12 -3 7 -7z m-2607 -45 c-3 -8 -6 -5 -6 6 -1 11 2 17 5 13 3 -3 4 -12 1 -19z
m153 2 c0 -5 -5 -10 -11 -10 -5 0 -7 5 -4 10 3 6 8 10 11 10 2 0 4 -4 4 -10z
m2518 -12 c-2 -6 -10 -14 -16 -16 -7 -2 -10 2 -6 12 7 18 28 22 22 4z m-1070
-10 c-2 -6 -10 -14 -16 -16 -7 -2 -10 2 -6 12 7 18 28 22 22 4z m-1703 -18 c3
-5 1 -10 -4 -10 -6 0 -11 5 -11 10 0 6 2 10 4 10 3 0 8 -4 11 -10z m2765 -60
c-12 -17 -24 -29 -27 -26 -3 3 5 19 17 36 12 17 24 29 27 26 3 -3 -5 -19 -17
-36z m-1170 10 c0 -6 -7 -13 -15 -16 -8 -4 -15 -11 -15 -18 0 -6 -18 -28 -40
-50 -23 -22 -40 -33 -40 -24 0 22 34 83 48 84 28 2 32 5 32 19 0 8 7 15 15 15
8 0 15 -5 15 -10z m233 -43 c-47 -53 -65 -71 -59 -57 3 8 9 23 12 33 4 9 10
17 14 17 4 0 11 12 14 26 6 21 9 24 22 13 13 -10 12 -14 -3 -32z m829 21 c-7
-7 -12 -8 -12 -2 0 14 12 26 19 19 2 -3 -1 -11 -7 -17z m-613 -12 c8 -10 8
-20 -4 -42 -9 -18 -15 -23 -15 -12 0 9 -5 18 -11 20 -7 2 -9 13 -5 26 8 25 19
28 35 8z m-294 -6 c3 -5 1 -10 -4 -10 -6 0 -11 5 -11 10 0 6 2 10 4 10 3 0 8
-4 11 -10z m623 -20 c-14 -22 -24 -19 -15 5 4 8 11 15 17 15 6 0 6 -7 -2 -20z
m-1728 -10 c0 -11 -2 -20 -4 -20 -2 0 -6 9 -9 20 -3 11 -1 20 4 20 5 0 9 -9 9
-20z m-620 -14 c0 -8 -4 -18 -10 -21 -5 -3 -10 3 -10 14 0 12 5 21 10 21 6 0
10 -6 10 -14z m2664 -10 c-10 -8 -21 -12 -24 -9 -3 2 4 11 14 19 11 7 22 12
25 9 2 -3 -4 -12 -15 -19z m176 4 c0 -5 -2 -10 -4 -10 -3 0 -8 5 -11 10 -3 6
-1 10 4 10 6 0 11 -4 11 -10z m-1260 -27 c0 -15 -41 -75 -47 -69 -3 3 1 14 10
24 10 10 17 26 17 35 0 9 5 17 10 17 6 0 10 -3 10 -7z m-910 -33 c0 -5 -4 -10
-10 -10 -5 0 -10 5 -10 10 0 6 5 10 10 10 6 0 10 -4 10 -10z m1941 -13 c-10
-9 -11 -8 -5 6 3 10 9 15 12 12 3 -3 0 -11 -7 -18z m-631 3 c0 -5 -4 -10 -10
-10 -5 0 -10 5 -10 10 0 6 5 10 10 10 6 0 10 -4 10 -10z m-566 -15 c-5 -12
-35 -32 -124 -84 -8 -4 -41 -20 -73 -35 -59 -27 -92 -32 -101 -18 -7 12 30 29
79 37 47 8 125 48 169 88 33 29 59 36 50 12z m643 -17 c-3 -8 -6 -5 -6 6 -1
11 2 17 5 13 3 -3 4 -12 1 -19z m-1353 -4 c5 -14 4 -15 -9 -4 -17 14 -19 20
-6 20 5 0 12 -7 15 -16z m1806 7 c0 -5 -6 -14 -14 -20 -12 -10 -13 -8 -9 8 5
21 23 30 23 12z m-2560 -21 c0 -5 -4 -10 -10 -10 -5 0 -10 5 -10 10 0 6 5 10
10 10 6 0 10 -4 10 -10z m1981 -33 c-10 -9 -11 -8 -5 6 3 10 9 15 12 12 3 -3
0 -11 -7 -18z m-216 -16 c-8 -17 -12 -37 -9 -45 7 -18 -14 -49 -27 -41 -4 3
-6 12 -2 21 3 8 2 14 -3 13 -21 -4 -35 2 -29 12 4 6 13 8 21 5 8 -3 14 0 14 6
0 11 39 58 47 58 2 0 -3 -13 -12 -29z m315 25 c0 -3 -4 -8 -10 -11 -5 -3 -10
-1 -10 4 0 6 5 11 10 11 6 0 10 -2 10 -4z m707 -28 c-3 -8 -6 -5 -6 6 -1 11 2
17 5 13 3 -3 4 -12 1 -19z m224 -15 c-12 -20 -14 -14 -5 12 4 9 9 14 11 11 3
-2 0 -13 -6 -23z m-970 -6 c-13 -13 -26 -3 -16 12 3 6 11 8 17 5 6 -4 6 -10
-1 -17z m544 -7 c-10 -11 -20 -18 -23 -15 -7 6 18 35 31 35 5 0 2 -9 -8 -20z
m-135 6 c0 -3 -4 -8 -10 -11 -5 -3 -10 -1 -10 4 0 6 5 11 10 11 6 0 10 -2 10
-4z m-590 -16 c0 -5 -4 -10 -10 -10 -5 0 -10 5 -10 10 0 6 5 10 10 10 6 0 10
-4 10 -10z m831 -29 c-25 -25 -27 -15 -4 19 9 13 18 19 21 12 2 -6 -6 -20 -17
-31z m-2028 22 c-7 -2 -21 -2 -30 0 -10 3 -4 5 12 5 17 0 24 -2 18 -5z m1397
-29 c-18 -21 -24 -10 -9 18 8 14 14 18 17 10 2 -7 -2 -19 -8 -28z m-1330 16
c0 -5 -4 -10 -9 -10 -6 0 -13 5 -16 10 -3 6 1 10 9 10 9 0 16 -4 16 -10z
m1641 -13 c-10 -9 -11 -8 -5 6 3 10 9 15 12 12 3 -3 0 -11 -7 -18z m-1382 7
c24 -4 30 -8 21 -14 -7 -4 -19 -6 -26 -3 -6 2 -15 0 -18 -6 -4 -6 -13 -8 -21
-4 -8 3 -15 0 -15 -6 0 -8 -8 -7 -22 3 -12 9 -42 16 -66 16 -24 0 -41 4 -38 8
5 9 135 13 185 6z m96 -4 c-11 -5 -27 -9 -35 -9 -13 -1 -13 0 0 9 8 5 24 9 35
9 l20 0 -20 -9z m794 -74 c-23 -31 -43 -56 -45 -56 -10 0 -2 20 14 36 9 10 17
20 17 23 0 13 50 71 53 63 2 -6 -16 -35 -39 -66z m131 60 c0 -8 6 -16 13 -19
10 -4 10 -7 0 -18 -11 -11 -13 -10 -13 4 0 19 -15 23 -25 7 -3 -5 -11 -10 -16
-10 -11 0 22 49 34 50 4 0 7 -6 7 -14z m-200 -4 c0 -4 -17 -24 -37 -43 -33
-29 -34 -30 -10 -3 15 16 27 35 27 42 0 7 5 12 10 12 6 0 10 -4 10 -8z m710
-14 c0 -17 -18 -44 -24 -37 -8 7 5 49 15 49 5 0 9 -6 9 -12z m561 -15 c-12
-20 -14 -14 -5 12 4 9 9 14 11 11 3 -2 0 -13 -6 -23z m-370 -16 c-8 -8 -11 -7
-11 4 0 20 13 34 18 19 3 -7 -1 -17 -7 -23z m-1467 7 c9 -24 7 -34 -6 -34 -7
0 -14 11 -14 25 -2 28 11 34 20 9z m996 6 c0 -5 -4 -10 -10 -10 -5 0 -10 5
-10 10 0 6 5 10 10 10 6 0 10 -4 10 -10z m-2326 -51 c-9 -15 -24 10 -17 29 5
12 7 12 15 -2 5 -9 6 -21 2 -27z m2386 25 c0 -8 -5 -12 -10 -9 -6 4 -8 11 -5
16 9 14 15 11 15 -7z m400 -8 c0 -3 -4 -8 -10 -11 -5 -3 -10 -1 -10 4 0 6 5
11 10 11 6 0 10 -2 10 -4z m-220 -20 c0 -8 -4 -18 -10 -21 -5 -3 -10 3 -10 14
0 12 5 21 10 21 6 0 10 -6 10 -14z m527 -18 c-3 -8 -6 -5 -6 6 -1 11 2 17 5
13 3 -3 4 -12 1 -19z"/>
<path d="M2130 10370 c-12 -8 -11 -10 7 -10 12 0 25 5 28 10 8 13 -15 13 -35
0z"/>
<path d="M1706 11045 c4 -8 8 -15 10 -15 2 0 4 7 4 15 0 8 -4 15 -10 15 -5 0
-7 -7 -4 -15z"/>
<path d="M1445 10910 c3 -5 8 -10 11 -10 2 0 4 5 4 10 0 6 -5 10 -11 10 -5 0
-7 -4 -4 -10z"/>
<path d="M1143 10763 c2 -22 9 -30 37 -40 52 -19 56 -16 24 15 -60 55 -63 57
-61 25z"/>
<path d="M1245 10709 c-10 -15 3 -25 16 -12 7 7 7 13 1 17 -6 3 -14 1 -17 -5z"/>
<path d="M2600 10011 c0 -12 21 -19 43 -13 28 7 20 22 -13 22 -16 0 -30 -4
-30 -9z"/>
<path d="M714 9642 c-12 -9 -24 -25 -27 -34 -4 -10 -13 -18 -21 -18 -8 0 -20
8 -26 18 -9 14 -10 13 -6 -10 4 -15 2 -30 -4 -33 -5 -3 -10 -19 -10 -35 0 -16
-5 -32 -11 -35 -6 -4 -8 -14 -5 -22 4 -8 1 -33 -6 -54 -6 -22 -8 -42 -5 -45
11 -12 36 17 30 33 -4 11 -2 14 5 9 8 -5 19 9 33 41 20 47 49 83 68 83 11 0
25 39 17 47 -3 3 -12 0 -20 -6 -11 -9 -16 -9 -21 0 -7 10 3 22 26 31 10 5 21
48 12 48 -4 0 -17 -8 -29 -18z m-48 -103 c-3 -16 -13 -37 -21 -45 -19 -20 -20
-4 0 22 8 10 15 27 15 37 0 9 3 17 6 17 4 0 4 -14 0 -31z"/>
<path d="M771 9604 c0 -11 3 -14 6 -6 3 7 2 16 -1 19 -3 4 -6 -2 -5 -13z"/>
<path d="M1090 9580 c0 -5 5 -10 11 -10 5 0 7 5 4 10 -3 6 -8 10 -11 10 -2 0
-4 -4 -4 -10z"/>
<path d="M846 9554 c-8 -30 1 -64 16 -64 7 0 7 4 -1 14 -6 7 -8 27 -5 45 8 37
-1 42 -10 5z"/>
<path d="M892 9527 c-8 -9 -7 -21 3 -41 8 -15 14 -30 12 -34 -3 -10 36 -72 45
-72 4 0 8 -5 8 -11 0 -6 7 -17 15 -25 13 -14 15 -14 15 0 0 8 -6 21 -13 28 -8
7 -19 23 -26 35 -10 19 -9 22 4 17 23 -9 18 8 -13 41 -15 17 -26 37 -24 47 4
21 -13 31 -26 15z"/>
<path d="M1540 9519 c0 -6 7 -9 15 -6 14 6 72 -18 68 -28 -4 -6 3 -6 22 1 23
9 18 19 -18 32 -42 15 -87 16 -87 1z"/>
<path d="M765 9448 c-4 -10 -4 -26 0 -35 8 -17 8 -17 12 0 3 9 3 25 0 35 -4
16 -4 16 -12 0z"/>
<path d="M984 9443 c4 -9 1 -20 -6 -24 -9 -6 -7 -16 12 -41 13 -18 23 -40 23
-50 -2 -19 31 -43 46 -34 5 3 14 -1 21 -9 7 -8 18 -15 25 -15 6 0 17 -11 24
-24 14 -26 50 -46 81 -46 11 0 20 -5 20 -11 0 -5 5 -7 10 -4 19 12 10 26 -26
41 -42 17 -50 24 -111 82 -25 24 -51 41 -57 39 -14 -5 -59 55 -47 62 9 6 -4
51 -15 51 -3 0 -3 -8 0 -17z"/>
<path d="M780 9378 c0 -14 39 -68 40 -55 0 11 -29 67 -35 67 -3 0 -5 -6 -5
-12z"/>
<path d="M1142 9368 c5 -15 28 -23 28 -10 0 5 -7 13 -16 16 -10 4 -14 1 -12
-6z"/>
<path d="M930 9311 c0 -5 9 -11 20 -14 24 -6 27 8 4 17 -21 8 -24 8 -24 -3z"/>
<path d="M1090 9240 c0 -5 7 -10 16 -10 8 0 12 5 9 10 -3 6 -10 10 -16 10 -5
0 -9 -4 -9 -10z"/>
<path d="M1364 9235 c22 -17 40 -20 32 -6 -3 5 -16 11 -28 14 -22 6 -22 5 -4
-8z"/>
<path d="M1270 9203 c0 -15 15 -28 33 -29 23 -2 22 13 -2 26 -23 12 -31 13
-31 3z"/>
<path d="M2415 7450 c-3 -5 -1 -10 4 -10 6 0 11 5 11 10 0 6 -2 10 -4 10 -3 0
-8 -4 -11 -10z"/>
<path d="M1640 5785 c-10 -12 -10 -15 4 -15 9 0 16 7 16 15 0 8 -2 15 -4 15
-2 0 -9 -7 -16 -15z"/>
<path d="M4870 4316 c0 -35 10 -56 26 -56 16 0 19 16 4 25 -12 8 -13 45 -2 45
5 0 14 -10 20 -22 7 -15 11 -18 11 -7 1 20 -19 39 -41 39 -12 0 -18 -8 -18
-24z"/>
<path d="M5006 4322 c-13 -12 -5 -19 19 -19 14 0 24 4 22 10 -4 12 -33 18 -41
9z"/>
<path d="M5076 4301 c-9 -9 -16 -26 -16 -37 1 -18 1 -18 12 1 6 11 18 25 26
31 9 7 11 13 5 17 -6 4 -18 -2 -27 -12z"/>
<path d="M4976 4256 c4 -16 1 -25 -10 -29 -9 -4 -16 -14 -16 -23 0 -13 5 -11
26 9 18 18 24 32 19 46 -9 29 -27 26 -19 -3z"/>
<path d="M5235 4250 c-3 -5 0 -10 9 -10 8 0 16 -6 19 -12 2 -7 8 -10 12 -6 8
8 -12 38 -26 38 -4 0 -11 -4 -14 -10z"/>
<path d="M5210 4205 c7 -9 15 -13 17 -11 7 7 -7 26 -19 26 -6 0 -6 -6 2 -15z"/>
<path d="M5011 4194 c0 -11 3 -14 6 -6 3 7 2 16 -1 19 -3 4 -6 -2 -5 -13z"/>
<path d="M5165 4195 c-3 -8 -7 -22 -10 -30 -2 -8 2 -27 10 -42 12 -23 15 -24
21 -10 3 10 1 24 -6 32 -7 8 -10 26 -6 40 7 27 -1 35 -9 10z"/>
<path d="M4876 4192 c-3 -6 -1 -14 5 -17 15 -10 25 3 12 16 -7 7 -13 7 -17 1z"/>
<path d="M4790 4156 c0 -9 5 -16 10 -16 6 0 10 4 10 9 0 6 -4 13 -10 16 -5 3
-10 -1 -10 -9z"/>
<path d="M5230 4161 c0 -6 5 -13 10 -16 6 -3 10 1 10 9 0 9 -4 16 -10 16 -5 0
-10 -4 -10 -9z"/>
<path d="M5111 3984 c0 -11 3 -14 6 -6 3 7 2 16 -1 19 -3 4 -6 -2 -5 -13z"/>
<path d="M4901 3704 c0 -11 3 -14 6 -6 3 7 2 16 -1 19 -3 4 -6 -2 -5 -13z"/>
<path d="M9130 2900 c-13 -8 -13 -10 2 -10 9 0 20 5 23 10 8 13 -5 13 -25 0z"/>
<path d="M9610 2890 c19 -13 30 -13 30 0 0 6 -10 10 -22 10 -19 0 -20 -2 -8
-10z"/>
<path d="M9698 2863 c7 -3 16 -2 19 1 4 3 -2 6 -13 5 -11 0 -14 -3 -6 -6z"/>
<path d="M10210 2734 c8 -8 23 -20 34 -26 19 -10 18 -8 -3 16 -26 27 -53 37
-31 10z"/>
<path d="M10540 2628 c0 -26 5 -59 10 -73 6 -15 12 -55 14 -89 4 -59 30 -145
41 -134 3 2 -4 49 -16 104 -11 54 -18 111 -15 126 5 27 -9 84 -25 103 -5 5 -9
-11 -9 -37z"/>
<path d="M10515 2553 c7 -30 13 -39 19 -32 8 8 -6 59 -16 59 -6 0 -7 -11 -3
-27z"/>
<path d="M10717 2543 c-4 -3 -7 -20 -6 -37 l1 -31 9 34 c10 33 8 47 -4 34z"/>
<path d="M10612 2503 c15 -34 28 -51 28 -35 0 18 -22 62 -31 62 -5 0 -3 -12 3
-27z"/>
<path d="M9925 2500 c3 -5 8 -10 11 -10 2 0 4 5 4 10 0 6 -5 10 -11 10 -5 0
-7 -4 -4 -10z"/>
<path d="M10513 2453 c-18 -7 -16 -23 2 -23 8 0 15 -4 15 -10 0 -5 4 -10 9
-10 4 0 6 11 3 25 -4 25 -7 27 -29 18z"/>
<path d="M10510 2380 c0 -5 5 -10 11 -10 5 0 7 5 4 10 -3 6 -8 10 -11 10 -2 0
-4 -4 -4 -10z"/>
<path d="M10855 2370 c-17 -7 -17 -9 -2 -9 11 -1 17 -9 17 -26 0 -14 -4 -25
-10 -25 -5 0 -10 -5 -10 -11 0 -27 28 14 32 46 4 37 4 38 -27 25z"/>
<path d="M10775 2345 c-23 -10 -25 -13 -10 -14 11 0 31 6 45 14 32 18 5 19
-35 0z"/>
<path d="M9960 2095 c0 -8 -4 -15 -9 -15 -4 0 -11 -21 -14 -46 -3 -28 -13 -54
-25 -67 -20 -19 -25 -20 -69 -8 -26 7 -56 13 -65 14 -10 1 -18 7 -18 14 0 17
-19 17 -26 -1 -3 -8 -17 -16 -32 -19 -15 -3 -34 -8 -43 -12 -22 -8 -77 61 -62
76 6 6 77 14 157 18 135 7 168 13 154 26 -10 10 -193 8 -283 -2 -55 -7 -94 -8
-101 -2 -7 6 -16 4 -23 -5 -14 -17 -92 -33 -196 -40 -16 -1 -45 -9 -62 -18
-18 -9 -42 -14 -53 -11 -11 3 -20 1 -20 -5 0 -5 -9 -12 -21 -15 -12 -3 -18
-10 -14 -16 3 -6 0 -11 -8 -11 -7 0 -31 -13 -53 -29 -26 -20 -46 -28 -61 -25
-14 4 -22 1 -25 -11 -3 -18 -113 -67 -140 -63 -9 2 -27 -7 -41 -20 -14 -13
-32 -24 -40 -26 -9 -1 -25 -10 -36 -20 -15 -14 -24 -16 -33 -8 -10 8 -20 4
-37 -14 -20 -21 -22 -27 -10 -35 8 -5 17 -9 22 -9 14 0 7 -20 -8 -20 -19 0
-77 -29 -86 -42 -3 -5 -5 -21 -3 -36 1 -15 -3 -30 -9 -34 -7 -5 -1 -8 14 -8
16 0 30 -7 33 -16 6 -15 0 -16 -41 -10 -26 3 -52 11 -57 16 -16 16 -53 12 -60
-6 -4 -11 6 -28 31 -50 20 -19 34 -34 30 -34 -4 0 2 -9 14 -21 20 -20 96 -38
154 -34 34 1 58 -12 49 -27 -4 -6 2 -8 15 -3 26 8 29 -13 4 -22 -31 -11 -53
-35 -53 -60 0 -30 6 -29 37 7 13 17 29 30 35 30 5 0 7 -12 3 -30 -4 -19 -3
-30 4 -30 6 0 11 4 11 9 0 5 12 24 26 41 20 24 29 28 35 18 15 -23 10 -69 -11
-102 -19 -31 -19 -32 0 -44 16 -10 21 -7 39 24 17 29 25 34 44 29 12 -4 30
-16 40 -28 12 -14 30 -21 53 -20 19 0 34 -3 34 -8 0 -5 -14 -29 -32 -54 -37
-52 -31 -71 9 -31 39 39 83 69 83 57 0 -6 7 -8 15 -5 17 7 19 0 6 -24 -4 -9
-11 -34 -14 -55 -5 -35 -5 -37 16 -26 16 9 22 9 25 0 5 -16 22 -14 22 4 0 20
68 84 97 91 15 4 31 0 41 -9 9 -8 25 -17 34 -18 15 -4 14 -10 -8 -61 -17 -41
-21 -63 -15 -80 8 -22 8 -22 24 7 28 54 71 95 98 95 13 0 35 7 47 16 39 27 52
4 52 -87 0 -43 -5 -90 -12 -104 -12 -27 -3 -49 12 -25 5 8 14 45 21 82 10 55
16 68 31 68 11 0 18 7 18 20 0 11 5 20 11 20 5 0 7 -4 4 -10 -3 -5 -2 -10 3
-10 5 0 13 -27 16 -61 4 -34 10 -59 13 -56 3 3 9 40 14 83 10 93 30 123 65
100 20 -14 22 -13 28 7 3 12 1 26 -4 31 -15 15 -12 26 8 26 17 0 18 -10 16
-114 -2 -63 1 -127 6 -143 6 -21 8 -9 9 51 1 101 16 150 50 167 40 20 44 17
56 -30 12 -52 38 -70 34 -25 -1 16 -1 45 -1 64 2 29 4 32 15 20 8 -8 24 -48
36 -87 12 -40 27 -73 32 -73 11 0 12 46 0 68 -5 11 -2 31 10 57 l18 40 0 -52
c1 -28 5 -54 9 -57 13 -8 42 31 49 65 6 30 17 38 27 17 5 -10 7 -10 12 0 9 19
21 14 29 -11 5 -16 8 -18 11 -7 11 40 -55 132 -69 97 -4 -9 -6 -9 -6 1 -1 7
-14 12 -31 12 -23 0 -30 5 -30 19 0 21 26 36 35 21 14 -22 27 -5 72 87 40 83
46 106 47 162 1 36 -2 82 -7 102 l-7 36 47 2 c74 2 143 -17 143 -40 0 -12 -5
-16 -14 -13 -8 3 -17 1 -21 -5 -3 -7 2 -11 15 -11 11 0 28 -4 38 -9 59 -31
103 -44 114 -33 11 11 33 7 56 -11 9 -7 10 -13 1 -24 -9 -10 -9 -17 -1 -25 17
-17 15 -28 -4 -28 -13 0 -11 -5 7 -24 18 -19 27 -22 37 -14 11 9 12 6 7 -15
-7 -27 7 -38 20 -17 3 6 18 10 31 10 31 0 28 24 -4 28 -14 2 -23 13 -28 35 -3
18 -12 35 -18 39 -6 4 -11 11 -11 15 0 14 -125 133 -139 133 -8 0 -18 -9 -21
-20 -7 -22 -20 -26 -30 -9 -4 5 4 19 17 31 l23 21 -22 -6 c-13 -3 -23 -1 -23
3 0 20 58 70 89 76 29 6 37 3 67 -31 19 -21 34 -42 34 -47 0 -4 6 -8 14 -8 8
0 16 -6 19 -12 2 -7 3 -5 2 5 -2 9 1 17 5 17 5 0 15 2 22 5 8 3 29 -8 48 -25
18 -16 40 -30 47 -30 7 0 13 -7 13 -15 0 -8 5 -15 10 -15 31 0 -9 60 -97 148
-34 34 -67 62 -73 62 -6 0 -21 12 -33 26 -23 26 -136 96 -217 134 -25 12 -58
28 -73 36 -16 8 -34 14 -41 14 -7 0 -41 11 -77 25 -74 30 -89 33 -145 34 -33
1 -43 5 -47 21 -6 23 -27 27 -27 5z m98 -52 c15 -3 41 -15 59 -25 17 -11 43
-20 57 -22 14 -1 31 -7 38 -13 7 -5 32 -15 55 -22 23 -6 57 -25 75 -41 34 -31
60 -41 38 -15 -8 10 -9 15 -2 15 6 0 40 -29 76 -64 71 -69 71 -69 1 -99 -49
-21 -122 -18 -140 6 -7 9 -22 17 -34 17 -11 0 -21 5 -21 10 0 6 -11 15 -25 20
-16 6 -25 17 -25 31 0 12 -5 19 -12 16 -7 -2 -13 -14 -12 -26 1 -29 -12 -26
-20 5 -6 21 -12 25 -34 22 -25 -3 -27 0 -32 36 l-5 39 -14 -26 c-14 -26 -41
-37 -41 -17 0 6 -6 10 -14 10 -20 0 -26 23 -26 97 0 55 2 64 16 59 9 -3 28 -9
42 -13z m-507 -58 c28 -41 29 -58 4 -49 -8 4 -12 11 -8 18 4 6 -1 5 -10 -2 -9
-8 -25 -11 -37 -7 -12 4 -26 2 -33 -3 -7 -5 -28 -12 -48 -16 -19 -3 -53 -15
-75 -26 l-39 -21 -14 21 c-7 11 -20 20 -27 20 -17 0 -17 -5 -3 -32 9 -17 9
-20 -4 -15 -8 3 -19 1 -25 -5 -8 -8 -13 -1 -20 23 -9 33 -7 35 27 51 117 55
133 60 162 54 16 -3 29 -2 29 2 0 11 51 31 75 29 10 -1 31 -20 46 -42z m416
-11 c-6 -40 -11 -49 -26 -39 -14 8 -14 31 -1 56 17 31 32 22 27 -17z m-780
-79 c-4 -8 -17 -15 -29 -14 l-23 0 23 11 c12 6 22 16 22 21 0 6 3 8 6 4 4 -3
4 -13 1 -22z m1003 -159 c0 -3 -4 -8 -10 -11 -5 -3 -10 -1 -10 4 0 6 5 11 10
11 6 0 10 -2 10 -4z m34 -11 c3 -8 1 -15 -4 -15 -6 0 -10 7 -10 15 0 8 2 15 4
15 2 0 6 -7 10 -15z m-420 -141 c2 -71 8 -148 11 -171 6 -36 5 -43 -8 -43 -24
0 -38 61 -44 193 -5 103 -3 120 12 137 10 11 20 19 21 17 2 -2 6 -61 8 -133z
m836 105 c0 -5 -4 -9 -10 -9 -5 0 -10 7 -10 16 0 8 5 12 10 9 6 -3 10 -10 10
-16z m-1278 -21 c-7 -7 -12 -8 -12 -2 0 14 12 26 19 19 2 -3 -1 -11 -7 -17z
m76 10 c-3 -7 -13 -15 -24 -17 -16 -3 -17 -1 -5 13 16 19 34 21 29 4z m583
-30 c13 -48 17 -228 6 -270 -6 -25 -36 -41 -37 -20 -4 71 -4 325 -1 328 12 11
21 0 32 -38z m-561 -51 c0 -85 61 -229 120 -282 26 -24 26 -45 -1 -45 -24 0
-133 38 -201 70 -46 21 -128 93 -146 126 -17 33 4 62 65 90 32 15 61 32 66 39
4 8 21 16 37 20 16 4 32 11 35 16 14 21 25 6 25 -34z m-775 23 c3 -5 1 -10 -4
-10 -6 0 -11 5 -11 10 0 6 2 10 4 10 3 0 8 -4 11 -10z m15 -45 c0 -14 -4 -25
-10 -25 -11 0 -14 33 -3 43 11 11 13 8 13 -18z m-54 -7 c-20 -11 -44 1 -25 12
6 5 19 6 27 3 12 -5 12 -7 -2 -15z m1184 -318 c0 -5 -9 -10 -20 -10 -11 0 -20
5 -20 10 0 6 9 10 20 10 11 0 20 -4 20 -10z m270 -90 c0 -21 -4 -42 -10 -45
-6 -4 -10 13 -10 45 0 32 4 49 10 45 6 -3 10 -24 10 -45z m-940 25 c-7 -9 -15
-13 -17 -11 -7 7 7 26 19 26 6 0 6 -6 -2 -15z m975 -4 c3 -5 1 -12 -5 -16 -5
-3 -10 1 -10 9 0 18 6 21 15 7z m-285 -16 c0 -8 -7 -15 -15 -15 -16 0 -20 12
-8 23 11 12 23 8 23 -8z m-656 -30 c-9 -14 -19 -24 -21 -21 -7 7 16 46 28 46
5 0 2 -11 -7 -25z"/>
<path d="M10101 1954 c0 -11 3 -14 6 -6 3 7 2 16 -1 19 -3 4 -6 -2 -5 -13z"/>
<path d="M1288 1933 c7 -3 16 -2 19 1 4 3 -2 6 -13 5 -11 0 -14 -3 -6 -6z"/>
<path d="M1098 1913 c-17 -3 -28 -11 -28 -20 0 -9 6 -13 14 -10 8 3 31 9 50
13 20 3 36 10 36 15 0 9 -22 10 -72 2z"/>
<path d="M920 1860 c0 -5 9 -10 19 -10 11 0 23 5 26 10 4 6 -5 10 -19 10 -14
0 -26 -4 -26 -10z"/>
<path d="M10540 1510 c0 -5 5 -10 11 -10 5 0 7 5 4 10 -3 6 -8 10 -11 10 -2 0
-4 -4 -4 -10z"/>
<path d="M10650 1470 c0 -5 5 -10 10 -10 6 0 10 5 10 10 0 6 -4 10 -10 10 -5
0 -10 -4 -10 -10z"/>
<path d="M10590 1376 c0 -2 7 -7 16 -10 8 -3 12 -2 9 4 -6 10 -25 14 -25 6z"/>
<path d="M8650 1350 c0 -14 26 -23 41 -15 8 6 7 10 -2 16 -19 12 -39 11 -39
-1z"/>
<path d="M10628 1303 c-16 -2 -28 -9 -28 -15 0 -6 -6 -6 -15 2 -18 15 -30 7
-22 -14 4 -9 13 -13 22 -10 8 3 15 1 15 -5 0 -6 12 -11 26 -11 16 0 23 4 18
12 -5 8 0 9 17 5 33 -9 63 1 77 24 11 18 9 19 -35 18 -27 -1 -60 -4 -75 -6z"/>
<path d="M10180 1234 c0 -3 9 -14 20 -26 22 -24 26 -64 8 -102 -8 -18 -8 -33
-1 -48 10 -22 10 -22 21 -2 6 11 12 56 13 100 l2 79 -31 2 c-18 1 -32 -1 -32
-3z"/>
<path d="M10148 1094 c-5 -4 -8 -16 -8 -28 0 -14 3 -17 11 -9 6 6 9 19 7 28
-1 9 -6 13 -10 9z"/>
<path d="M9841 1074 c0 -11 3 -14 6 -6 3 7 2 16 -1 19 -3 4 -6 -2 -5 -13z"/>
<path d="M9761 1064 c0 -11 3 -14 6 -6 3 7 2 16 -1 19 -3 4 -6 -2 -5 -13z"/>
<path d="M9940 1018 c0 -9 5 -20 10 -23 13 -8 13 5 0 25 -8 13 -10 13 -10 -2z"/>
<path d="M6127 65 c-31 -30 -57 -57 -57 -60 0 -11 62 29 91 58 23 23 39 57 26
57 -1 0 -28 -25 -60 -55z"/>
</g>
</svg>
